<?xml version="1.0" encoding="UTF-8"?> <svg xmlns="http://www.w3.org/2000/svg" viewBox="0 0 294.87 289.52"><defs><style>.cls-1{fill:#fafafa;}.cls-2{fill:#e1e1e1;}.cls-3{fill:#92b6ea;}.cls-12,.cls-24,.cls-25,.cls-26,.cls-4{fill:#fff;}.cls-5{fill:#e2e2e2;}.cls-6{fill:#324256;}.cls-14,.cls-23,.cls-7{fill:none;}.cls-23,.cls-7{stroke:#324256;}.cls-7{stroke-miterlimit:10;stroke-width:3.79px;}.cls-8{fill:#2a4163;}.cls-9{fill:#0b5ee2;}.cls-10{opacity:0.1;}.cls-11{opacity:0.15;}.cls-12{opacity:0.7;}.cls-13{fill:#f0f0f0;}.cls-14{stroke:#fafafa;stroke-width:0.95px;}.cls-14,.cls-23{stroke-linecap:round;stroke-linejoin:round;}.cls-15{opacity:0.35;}.cls-16{fill:#2d3f54;}.cls-17{fill:#e7e7e7;}.cls-18{opacity:0.22;}.cls-19{fill:#ba6868;}.cls-20{fill:#974646;}.cls-21{fill:#ffaaa8;}.cls-22{fill:#ff9090;}.cls-23{stroke-width:0.63px;}.cls-24{opacity:0.8;}.cls-25{opacity:0.6;}.cls-26{opacity:0.5;}.cls-27{opacity:0.2;}.cls-28{fill:#4d4d4d;}.cls-29{fill:#0b4dad;}.cls-30{isolation:isolate;}.cls-31{fill:#3a5a93;}.cls-32{fill:#3862ad;}.cls-33{fill:#f2f2f2;}</style></defs><title>mtiAsset 44</title><g id="Layer_2" data-name="Layer 2"><g id="Layer_1-2" data-name="Layer 1"><g id="WPRedesign"><ellipse id="Floor" class="cls-1" cx="147.44" cy="204.4" rx="147.44" ry="85.12"></ellipse><path id="Shadow" class="cls-2" d="M192.79,240.64l27.54,16a3.63,3.63,0,0,0,3.29,0L264,233.35a1,1,0,0,0,0-1.9l-27.54-15.93a3.61,3.61,0,0,0-3.28,0L192.8,238.74A1,1,0,0,0,192.79,240.64Z"></path><path id="Shadow-2" data-name="Shadow" class="cls-2" d="M53.53,247.91l1,.58a2,2,0,0,0,1.76,0l160.1-92.44c.49-.28.49-.73,0-1l-1-.58a1.93,1.93,0,0,0-1.75,0L53.53,246.9A.53.53,0,0,0,53.53,247.91Z"></path><polygon id="Shadow-3" data-name="Shadow" class="cls-2" points="263.38 164.29 264.7 162.71 224.47 139.48 221.75 141.06 236.04 149.31 222.32 157.22 207.91 148.91 205.18 150.48 246.36 174.25 246.79 173.73 247.01 173.86 262.8 164.76 262.93 164.83 263.16 164.55 263.49 164.36 263.38 164.29"></polygon><ellipse id="Shadow-4" data-name="Shadow" class="cls-2" cx="260.7" cy="204.69" rx="9.66" ry="5.58"></ellipse><path class="cls-3" d="M44.13,82.63h0a.67.67,0,0,0-.71.07L40,85a1,1,0,0,1-1.37-.31,6.82,6.82,0,0,0-.67-.82,1.68,1.68,0,0,1-.4-1.62L43,78.76l-4-2.34h0a.81.81,0,0,0-.27-.11l-2.57-.57a1.39,1.39,0,0,0-1.46.67L32.22,81a2.57,2.57,0,0,1-1.46,1.1l-.15,0a5.72,5.72,0,0,0,.21-1.07l-4.07-2.35h0a.67.67,0,0,0-.77.1l-3.86,3a2.18,2.18,0,0,0-.73,1.64l.23,3.67A2.88,2.88,0,0,1,21,89c-.63.76-1.23,1.55-1.79,2.37a2,2,0,0,1-1.57.8L15.19,92a1.62,1.62,0,0,0-1.43.88l-2.33,5.23a1,1,0,0,0,.4,1.25h0L14.58,101a1.15,1.15,0,0,1,.06.71,25,25,0,0,0-.43,2.49,3.11,3.11,0,0,1-.83,1.7L10,109a2.05,2.05,0,0,0-.57,1.68l.64,3.73a.71.71,0,0,0,.31.51h0l4.08,2.35.05-4.66a1,1,0,0,1,1.37.3,6.82,6.82,0,0,0,.67.82,1.72,1.72,0,0,1,.4,1.63l-1.74,4.71a.86.86,0,0,0,.34,1h0l4.07,2.35,1.11-3,1.57-3.91a2.49,2.49,0,0,1,1.46-1.1,13.47,13.47,0,0,0,1.59-.53.88.88,0,0,1,1.22.56l.87,2.89a.72.72,0,0,0,.33.45h0l4.08,2.36-.72-4.52,1.25-1a2.19,2.19,0,0,0,.74-1.64l-.23-3.67a2.88,2.88,0,0,1,.6-1.78c.63-.75,1.58-1.16,2.15-2,.31-.46.65-1.21,1.21-1.18l2.48.12a1.58,1.58,0,0,0,1.42-.88L43,99.45a1,1,0,0,0-.52-1.33l-2-.85a1.24,1.24,0,0,1-.68-1.38,22.49,22.49,0,0,0,.42-2.5,3.19,3.19,0,0,1,.84-1.69l3.42-3.15a2,2,0,0,0,.56-1.16L48.18,85ZM28.6,106.74c-4.18,3.29-8.18,2.39-8.94-2s2.67-10,6.85-13.26,7.54-3,8.3,1.35S32.79,103.45,28.6,106.74Z"></path><path class="cls-4" d="M13.34,105.91,10,109a2,2,0,0,0-.52,1l5,2.9v-.26a1,1,0,0,1,1.37.3h0l4.84-2.79Z"></path><path class="cls-4" d="M22,96.5a18.82,18.82,0,0,1,1.25-1.72L18.38,92a1.85,1.85,0,0,1-.71.15L15.19,92a1.62,1.62,0,0,0-1,.38l7.42,4.28Z"></path><path class="cls-4" d="M48.18,85a.68.68,0,0,0-.69.08l-3.42,2.25A1,1,0,0,1,42.7,87a7.59,7.59,0,0,0-.67-.81,1.68,1.68,0,0,1-.4-1.63l.32-.87,1.47-1a.67.67,0,0,1,.71-.07h0Z"></path><path class="cls-4" d="M38.08,84a1.71,1.71,0,0,1-.11-.14,1.68,1.68,0,0,1-.4-1.62L43,78.76l-4-2.34h0a.81.81,0,0,0-.27-.11l-2.57-.57a1.39,1.39,0,0,0-1.46.67L32.22,81a2.26,2.26,0,0,1-.55.62l5.47,3.15Z"></path><path class="cls-4" d="M21.5,82.91l5,2.9L30.65,82a6.16,6.16,0,0,0,.17-.92l-4.07-2.35h0a.67.67,0,0,0-.77.1l-3.86,3A2.16,2.16,0,0,0,21.5,82.91Z"></path><path class="cls-5" d="M49.15,89.21l-.65-3.72a.61.61,0,0,0-1-.45l-3.42,2.25A1,1,0,0,1,42.7,87a7.59,7.59,0,0,0-.67-.81,1.72,1.72,0,0,1-.4-1.63l1.74-4.71a.85.85,0,0,0-.63-1.17l-2.58-.58a1.4,1.4,0,0,0-1.46.68l-2.42,4.61a2.53,2.53,0,0,1-1.46,1.1,13.37,13.37,0,0,0-1.59.52A.88.88,0,0,1,32,84.44l-.87-2.89a.64.64,0,0,0-1.08-.35l-3.86,3a2.18,2.18,0,0,0-.74,1.64l.23,3.67a2.87,2.87,0,0,1-.6,1.77c-.63.76-1.23,1.55-1.79,2.37a2,2,0,0,1-1.57.8l-2.48-.12a1.57,1.57,0,0,0-1.42.87l-2.34,5.23a1,1,0,0,0,.52,1.32l2,.86a1.25,1.25,0,0,1,.69,1.38,20.62,20.62,0,0,0-.43,2.49,3.19,3.19,0,0,1-.84,1.7L14,111.36a2.07,2.07,0,0,0-.57,1.69l.64,3.73a.62.62,0,0,0,1,.44L18.52,115a1,1,0,0,1,1.38.31,6.48,6.48,0,0,0,.66.81,1.68,1.68,0,0,1,.4,1.63l-1.74,4.71a.86.86,0,0,0,.64,1.17l2.57.58a1.39,1.39,0,0,0,1.46-.68l2.42-4.61a2.57,2.57,0,0,1,1.46-1.1,13.37,13.37,0,0,0,1.59-.52.88.88,0,0,1,1.22.55l.87,2.89a.65.65,0,0,0,1.09.35l3.86-3a2.16,2.16,0,0,0,.73-1.63l-.23-3.68a2.87,2.87,0,0,1,.6-1.77c.63-.76,1.23-1.55,1.79-2.37a2,2,0,0,1,1.57-.8l2.48.12a1.59,1.59,0,0,0,1.43-.87l2.33-5.23a1,1,0,0,0-.52-1.32l-2-.86a1.23,1.23,0,0,1-.69-1.38,25,25,0,0,0,.43-2.49,3.11,3.11,0,0,1,.83-1.7l3.42-3.14A2.1,2.1,0,0,0,49.15,89.21ZM32.67,109.08c-4.19,3.29-8.19,2.4-9-2s2-10.61,6.21-13.9,8.18-2.4,8.94,2S36.85,105.8,32.67,109.08Z"></path><path class="cls-3" d="M80.62,127.83l-4-2.3h0a.65.65,0,0,0-.62,0l-7.21,3.25a.86.86,0,0,1-1.2-.56A16,16,0,0,0,66,124.66a2,2,0,0,1-.1-1.75l4.8-9.68a1.08,1.08,0,0,0-.43-1.41l-5.21-3a1.09,1.09,0,0,0-1.43.33l-6,9a2,2,0,0,1-1.57.78A16.51,16.51,0,0,0,54,119v-6.58l-4-2.31h0a.67.67,0,0,0-.65.06l-8.1,4.68a2.17,2.17,0,0,0-1,1.51l-.81,9a3,3,0,0,1-.84,1.68,49.78,49.78,0,0,0-4.5,4.76,1.55,1.55,0,0,1-1.59.45l-5.2-1.81a1.24,1.24,0,0,0-1.45.54l-6,10.31a1.26,1.26,0,0,0,.26,1.53l4.17,3.6a1.54,1.54,0,0,1,.41,1.6,48.92,48.92,0,0,0-1.88,6.28,3,3,0,0,1-1,1.56l-7.4,5.21a2.21,2.21,0,0,0-.82,1.59V172a.66.66,0,0,0,.28.6h0l4,2.3,5.92-2.81c.23.48.48.94.74,1.38a2,2,0,0,1,.11,1.74L19.85,185a1.09,1.09,0,0,0,.42,1.41l5.22,3a1.08,1.08,0,0,0,1.43-.34l6-9a2,2,0,0,1,1.56-.78,15.69,15.69,0,0,0,3.9-.39.85.85,0,0,1,1.08.76l.79,7.87a.7.7,0,0,0,.32.55h0l4,2.29,4.79-7a2.2,2.2,0,0,0,1-1.51l.81-9a1.78,1.78,0,0,1,1-1.36A19.14,19.14,0,0,0,58.42,167a1.66,1.66,0,0,1,1.61-.43l3.19,1.13a1.28,1.28,0,0,0,1.46-.54l5.95-10.31a1.28,1.28,0,0,0-.26-1.54L67.63,153a1.66,1.66,0,0,1-.44-1.62,27.27,27.27,0,0,0,.74-7.47,2.06,2.06,0,0,1,.78-1.59l7.39-5.2a2.2,2.2,0,0,0,.83-1.6l3.53-4.23ZM45.27,164.88C37.71,169.24,33,166.15,33,157.43s6.24-19.41,13.8-23.77S59,132.47,59,141.19,52.82,160.52,45.27,164.88Z"></path><path class="cls-4" d="M69.1,116.43l1.59-3.2a1.08,1.08,0,0,0-.43-1.41l-5.21-3a1.09,1.09,0,0,0-1.43.33l-6,9a1.49,1.49,0,0,1-.4.39l6.7,3.87Z"></path><path class="cls-4" d="M22.4,155.29a2.53,2.53,0,0,1-.57.6l-7.4,5.21a2.08,2.08,0,0,0-.49.56l4.52,2.61,9.82-5.59Z"></path><path class="cls-4" d="M26.9,130.4a1.27,1.27,0,0,0-1,.61l-6,10.31a1.2,1.2,0,0,0-.13.75l5.13,3,8.15-11Z"></path><path class="cls-4" d="M40.41,115.84l6.35,3.67L54,115.34v-2.9l-4-2.31h0a.67.67,0,0,0-.65.06l-8.1,4.68A2.18,2.18,0,0,0,40.41,115.84Z"></path><path class="cls-5" d="M80.91,137.78v-9.35a.6.6,0,0,0-.92-.6l-7.21,3.25a.85.85,0,0,1-1.2-.55A16.52,16.52,0,0,0,70,127a1.94,1.94,0,0,1-.11-1.74l4.8-9.69a1.08,1.08,0,0,0-.43-1.41l-5.21-3a1.08,1.08,0,0,0-1.43.34l-6,9a2,2,0,0,1-1.57.78,16.1,16.1,0,0,0-3.89.39.86.86,0,0,1-1.09-.76L54.27,113a.6.6,0,0,0-1-.5l-8.1,4.67a2.2,2.2,0,0,0-1,1.51l-.82,9a3,3,0,0,1-.84,1.68,49.9,49.9,0,0,0-4.5,4.77,1.55,1.55,0,0,1-1.59.45l-5.19-1.82a1.28,1.28,0,0,0-1.46.54l-6,10.31a1.29,1.29,0,0,0,.26,1.54l4.18,3.59a1.57,1.57,0,0,1,.4,1.61,49.2,49.2,0,0,0-1.87,6.27,3,3,0,0,1-1,1.57l-7.4,5.21a2.19,2.19,0,0,0-.82,1.59v9.35a.6.6,0,0,0,.92.59l7.21-3.24a.86.86,0,0,1,1.2.55,16.22,16.22,0,0,0,1.6,3.57,2,2,0,0,1,.11,1.75l-4.8,9.69a1.09,1.09,0,0,0,.42,1.41l5.22,3a1.09,1.09,0,0,0,1.43-.34l6-9a2,2,0,0,1,1.57-.78,16.18,16.18,0,0,0,3.89-.4.87.87,0,0,1,1.09.77l.79,7.86a.6.6,0,0,0,1,.5l8.1-4.67a2.2,2.2,0,0,0,1-1.52l.81-9a3,3,0,0,1,.85-1.69,48.47,48.47,0,0,0,4.49-4.76,1.56,1.56,0,0,1,1.59-.45L67.2,170a1.27,1.27,0,0,0,1.46-.55l6-10.31a1.25,1.25,0,0,0-.26-1.53L70.18,154a1.55,1.55,0,0,1-.4-1.61,49.2,49.2,0,0,0,1.87-6.27,3,3,0,0,1,1-1.57l7.4-5.21A2.19,2.19,0,0,0,80.91,137.78Zm-31.66,29.4c-7.55,4.36-13.68.82-13.68-7.9S41.7,140,49.25,135.59s13.68-.83,13.68,7.9S56.8,162.82,49.25,167.18Z"></path><path class="cls-4" d="M80.63,127.83h0a.68.68,0,0,0-.64,0l-7.21,3.25a.86.86,0,0,1-1.2-.55,15.55,15.55,0,0,0-1-2.53L76,125.54a.68.68,0,0,1,.62,0h0Z"></path><path class="cls-6" d="M246.92,79.24,224.33,140.7h0a.78.78,0,0,1-.4.43,2.25,2.25,0,0,1-2.05,0,.77.77,0,0,1-.42-.51.49.49,0,0,1,0-.17,1.3,1.3,0,0,1,.08-.42l22.64-61.81a1.46,1.46,0,0,1,2.74,1Z"></path><line class="cls-7" x1="216.73" y1="121.53" x2="239.38" y2="134.6"></line><line class="cls-7" x1="233.2" y1="112.02" x2="255.85" y2="125.09"></line><path class="cls-8" d="M228.49,75l12.08-7a3.18,3.18,0,0,1,4.88,2.17L265.5,164a1.36,1.36,0,0,1,0,.2,1.27,1.27,0,0,1,0,.2.79.79,0,0,1-.42.5,2.27,2.27,0,0,1-2.06,0,.9.9,0,0,1-.4-.43s0-.06,0-.09l-20-93.57a.49.49,0,0,0-.19-.35s-.2,0-.38.1l-12.08,7"></path><path class="cls-9" d="M248.2,164.66l-7.36-4.25a1,1,0,0,1-.43-.76v-.18a1,1,0,0,1,.43-.76l17.66-10.19a1,1,0,0,1,.87,0l7.36,4.25a1,1,0,0,1,.44.76v.18a1,1,0,0,1-.44.76l-17.65,10.19A1,1,0,0,1,248.2,164.66Z"></path><path class="cls-10" d="M240.53,159a1,1,0,0,0-.12.43v.18a1,1,0,0,0,.43.76l7.36,4.25a.89.89,0,0,0,.44.1v-1Z"></path><path class="cls-11" d="M248.64,163.72v1a.89.89,0,0,0,.44-.1l8.83-5.1,8.82-5.09a1,1,0,0,0,.44-.76v-.18a.89.89,0,0,0-.13-.43Z"></path><path class="cls-9" d="M245,149.74l-7.36-4.25a1,1,0,0,1-.43-.76v-.17a1,1,0,0,1,.43-.76l17.66-10.19a1,1,0,0,1,.87,0l7.36,4.25a1,1,0,0,1,.44.76v.17a1,1,0,0,1-.44.76l-17.65,10.19A1,1,0,0,1,245,149.74Z"></path><path class="cls-10" d="M237.34,144.13a1,1,0,0,0-.12.43v.17a1,1,0,0,0,.43.76l7.36,4.25a.9.9,0,0,0,.44.11v-1Z"></path><path class="cls-11" d="M245.45,148.81v1a.9.9,0,0,0,.44-.11l8.83-5.09,8.82-5.1a1,1,0,0,0,.44-.76v-.17a.93.93,0,0,0-.13-.44Z"></path><path class="cls-9" d="M241.82,134.82l-7.35-4.24a1,1,0,0,1-.44-.76v-.18a1,1,0,0,1,.44-.76l17.65-10.19a1,1,0,0,1,.87,0l7.36,4.25a1,1,0,0,1,.44.76v.17a1,1,0,0,1-.44.76L242.7,134.82A1,1,0,0,1,241.82,134.82Z"></path><path class="cls-10" d="M234.15,129.21a1,1,0,0,0-.12.43v.18a1,1,0,0,0,.44.76l3.67,2.12,3.68,2.12a.9.9,0,0,0,.44.11v-1Z"></path><path class="cls-11" d="M242.26,133.89v1a.9.9,0,0,0,.44-.11l8.83-5.09,8.82-5.1a1,1,0,0,0,.44-.76v-.17a.86.86,0,0,0-.13-.43Z"></path><path class="cls-9" d="M238.63,119.91l-7.36-4.25a1,1,0,0,1-.43-.76v-.17a1,1,0,0,1,.43-.77l17.66-10.19a1,1,0,0,1,.87,0l7.36,4.25a1,1,0,0,1,.44.76V109a1,1,0,0,1-.44.76l-17.65,10.19A1,1,0,0,1,238.63,119.91Z"></path><path class="cls-11" d="M239.07,119v1a.89.89,0,0,0,.44-.1l8.83-5.1,8.82-5.09a1,1,0,0,0,.44-.76v-.18a.89.89,0,0,0-.13-.43Z"></path><path class="cls-10" d="M231,114.29a1,1,0,0,0-.12.44v.17a1,1,0,0,0,.43.76l7.36,4.25a.89.89,0,0,0,.44.1v-1Z"></path><path class="cls-9" d="M235.44,105l-12.22-7.06a1,1,0,0,1-.44-.76V97a1,1,0,0,1,.44-.76l17.65-10.19a1,1,0,0,1,.87,0L254,93.11a1,1,0,0,1,.44.76V94a1,1,0,0,1-.44.76L236.32,105A1,1,0,0,1,235.44,105Z"></path><path class="cls-11" d="M235.88,104.06v1a.9.9,0,0,0,.44-.11l8.83-5.09L254,94.8a1,1,0,0,0,.44-.76v-.17a.93.93,0,0,0-.13-.44Z"></path><path class="cls-10" d="M222.91,96.57a.86.86,0,0,0-.13.43v.17a1,1,0,0,0,.44.76L235.44,105a.9.9,0,0,0,.44.11v-1Z"></path><path class="cls-6" d="M230.45,88.75l-22.56,61.39v0l0,.14a.93.93,0,0,1-.36.35,2.35,2.35,0,0,1-2.07,0,.83.83,0,0,1-.42-.51V150a1.57,1.57,0,0,1,.09-.43l22.65-61.81a1.46,1.46,0,0,1,2.73,1Z"></path><path class="cls-8" d="M230,77.54a2.26,2.26,0,0,0-1,2.18L249,173.52a.85.85,0,0,1,0,.23.43.43,0,0,1,0,.16.79.79,0,0,1-.42.51,2.27,2.27,0,0,1-2.06,0,.93.93,0,0,1-.4-.42v0l0-.12-20-93.53A5.19,5.19,0,0,1,228.49,75"></path><path class="cls-2" d="M217.26,3.68a2.06,2.06,0,0,0-.86-1.89L213.65.19a2,2,0,0,0-2.06.21l-156,90.09a6.47,6.47,0,0,0-2.92,5.07v139a2,2,0,0,0,.86,1.89L56.25,238a2,2,0,0,0,2.07-.2l156-90.09a6.45,6.45,0,0,0,2.93-5.06Z"></path><path class="cls-9" d="M216.4,1.79a2.06,2.06,0,0,0-2.07.2l-156,90.1a5.86,5.86,0,0,0-2.06,2.18l-2.75-1.59a6,6,0,0,1,2.07-2.19L211.59.4a2,2,0,0,1,2.06-.21Z"></path><path class="cls-12" d="M216.4,1.79a2.06,2.06,0,0,0-2.07.2l-156,90.1a5.86,5.86,0,0,0-2.06,2.18l-2.75-1.59a6,6,0,0,1,2.07-2.19L211.59.4a2,2,0,0,1,2.06-.21Z"></path><path class="cls-13" d="M58.32,92.09,214.33,2c1.62-.93,2.93-.17,2.93,1.69v139a6.45,6.45,0,0,1-2.93,5.06l-156,90.09c-1.61.94-2.92.18-2.92-1.68v-139A6.47,6.47,0,0,1,58.32,92.09Z"></path><path class="cls-9" d="M56.26,94.27a6,6,0,0,0-.86,2.88v9.3l-2.74-1.59v-9.3a5.94,5.94,0,0,1,.85-2.88Z"></path><path class="cls-10" d="M56.26,94.27a6,6,0,0,0-.86,2.88v9.3l-2.74-1.59v-9.3a5.94,5.94,0,0,1,.85-2.88Z"></path><path class="cls-9" d="M217.26,3.68c0-1.86-1.31-2.62-2.93-1.69l-156,90.1a6.47,6.47,0,0,0-2.92,5.06v9.3L217.26,13Z"></path><polygon class="cls-9" points="60.88 109.61 60.88 198.31 121.24 163.46 121.24 97.03 82.83 96.94 60.88 109.61"></polygon><path class="cls-14" d="M97.06,121.49c0,2.62,1.85,3.69,4.12,2.37a9.09,9.09,0,0,0,4.11-7.12c0-2.63-1.84-3.69-4.11-2.38A9.1,9.1,0,0,0,97.06,121.49Z"></path><polygon class="cls-14" points="66.37 112.78 66.37 188.8 115.75 160.29 115.75 100.11 91.06 98.52 66.37 112.78"></polygon><polyline class="cls-14" points="94.83 143.86 104.78 130.2 115.75 138.12"></polyline><polyline class="cls-14" points="66.37 166.63 82.83 134.95 102.04 149.21"></polyline><path class="cls-10" d="M82.83,96.94s9.48,2.88,12.38,7.92c2.51,4.38,2.61,6.33,2.61,6.33s16.23-3.42,23.42-14.16Z"></path><path class="cls-9" d="M82.83,96.94s14.84,1.58,19.21,15c8.23-2.79,14.85-7.49,19.2-14.89Z"></path><path class="cls-12" d="M82.83,96.94s14.84,1.58,19.21,15c8.23-2.79,14.85-7.49,19.2-14.89Z"></path><path class="cls-9" d="M183.33,97.22a9.7,9.7,0,0,0-2.05,3.64,5,5,0,0,0,2.26-2.06c.13-.25.57-1.09.26-1.52A.28.28,0,0,0,183.33,97.22Z"></path><path class="cls-9" d="M175.35,94.93a1,1,0,0,0-.56.75,4.16,4.16,0,0,0,.37,2.65,7.08,7.08,0,0,0,.69-3.19C175.8,94.89,175.7,94.76,175.35,94.93Z"></path><path class="cls-9" d="M166.67,105.68l-.1,0a1,1,0,0,0-.41.53,1.08,1.08,0,0,0,.11,1.32c.41.39,1.17.4,2.15-.17C167.78,106,167.12,105.57,166.67,105.68Z"></path><path class="cls-9" d="M176.35,76.16c-9.21,4.68-17.19,18.13-17.83,30-.92,17.12,9.86,14.41,9.49,21.31a1.94,1.94,0,0,0,1.52,2.19c2.16.53,5.8-1.32,8.13-4.14a7.16,7.16,0,0,0,1.85-3.89h0c.37-6.9,11.45-15.3,12.36-32.42C192.51,77.34,185.56,71.48,176.35,76.16Zm8.13,23.33a7.32,7.32,0,0,1-3.92,3.41c-.42,1.32-.84,2.87-1.24,4.68a94.53,94.53,0,0,0-2.16,15.23,1.61,1.61,0,0,1-.73,1.25h0c-.37.19-.66,0-.64-.52A96.33,96.33,0,0,1,178,107.83c.38-1.69.79-3.27,1.24-4.68a5.16,5.16,0,0,1-1.71-.22,5.82,5.82,0,0,1-2.53-1.56,28.72,28.72,0,0,1-2.85,4.29,18.7,18.7,0,0,1-1.82,2,25.39,25.39,0,0,1,.79,3.66,73.06,73.06,0,0,1,.62,14.27,1.63,1.63,0,0,1-.75,1.23c-.38.18-.66-.08-.62-.57a72.86,72.86,0,0,0-.61-13.83,23.76,23.76,0,0,0-.8-3.63c-1.7,1.16-3,1.2-3.76.49s-.77-2.12-.1-3.52a3.37,3.37,0,0,1,1.93-2c1.07-.27,2.05.63,2.83,2.52a15.07,15.07,0,0,0,1.65-1.8,26,26,0,0,0,2.72-4.16,6,6,0,0,1-.73-4.5,4.11,4.11,0,0,1,1.94-2.71c.92-.46,1.57-.15,1.76.83.21,1.14-.24,3.17-1.28,5.52a5.21,5.21,0,0,0,2.42,1.55,4.44,4.44,0,0,0,1.55.18c1-2.81,2.16-4.79,3.26-5.62.74-.55,1.4-.53,1.82.06C185.53,96.45,185.33,98,184.48,99.49Z"></path><path class="cls-9" d="M176.57,72.13c-.63.32-1.1-.08-1.06-.89l.45-8.43a2.67,2.67,0,0,1,1.21-2c.63-.32,1.1.08,1.06.89l-.45,8.43A2.67,2.67,0,0,1,176.57,72.13Z"></path><path class="cls-9" d="M166.09,80.92c-.57.68-1.24.79-1.52.25l-2.87-5.64a2.34,2.34,0,0,1,.52-2.21c.57-.68,1.24-.79,1.52-.25l2.87,5.64A2.33,2.33,0,0,1,166.09,80.92Z"></path><path class="cls-9" d="M158,94.49c-.35.86-1.06,1.45-1.58,1.32L151,94.46c-.52-.12-.66-.93-.31-1.78s1.06-1.45,1.58-1.33l5.42,1.35C158.25,92.83,158.39,93.63,158,94.49Z"></path><path class="cls-9" d="M154.57,109.2a2.67,2.67,0,0,1-1.21,2l-6.52,3.31c-.63.32-1.1-.08-1.06-.89a2.67,2.67,0,0,1,1.21-2l6.52-3.31C154.14,108,154.61,108.39,154.57,109.2Z"></path><path class="cls-9" d="M156.61,121.1a2.31,2.31,0,0,1-.52,2.21l-5.87,7.09c-.56.68-1.24.79-1.52.25a2.34,2.34,0,0,1,.52-2.21l5.87-7.09C155.66,120.67,156.34,120.56,156.61,121.1Z"></path><path class="cls-9" d="M192.25,103c.35-.86,1.05-1.45,1.57-1.32l5.42,1.35c.52.13.66.93.31,1.79s-1.05,1.45-1.57,1.32l-5.42-1.35C192,104.65,191.9,103.85,192.25,103Z"></path><path class="cls-9" d="M195.72,88.29a2.61,2.61,0,0,1,1.21-2l6.52-3.31c.62-.32,1.09.08,1.05.88a2.64,2.64,0,0,1-1.21,2l-6.52,3.32C196.14,89.49,195.67,89.1,195.72,88.29Z"></path><path class="cls-9" d="M193.67,76.38a2.34,2.34,0,0,1,.52-2.21l5.87-7.08c.57-.68,1.25-.79,1.52-.25a2.31,2.31,0,0,1-.52,2.21l-5.87,7.08C194.63,76.81,194,76.92,193.67,76.38Z"></path><path class="cls-9" d="M186.66,70.47c-.52-.13-.65-.93-.3-1.79l3.65-9c.35-.86,1.05-1.45,1.57-1.32s.66.93.31,1.79l-3.65,9C187.89,70,187.18,70.6,186.66,70.47Z"></path><path class="cls-8" d="M176.57,72.13c-.63.32-1.1-.08-1.06-.89l.45-8.43a2.67,2.67,0,0,1,1.21-2c.63-.32,1.1.08,1.06.89l-.45,8.43A2.67,2.67,0,0,1,176.57,72.13Z"></path><path class="cls-8" d="M166.09,80.92c-.57.68-1.24.79-1.52.25l-2.87-5.64a2.34,2.34,0,0,1,.52-2.21c.57-.68,1.24-.79,1.52-.25l2.87,5.64A2.33,2.33,0,0,1,166.09,80.92Z"></path><path class="cls-8" d="M158,94.49c-.35.86-1.06,1.45-1.58,1.32L151,94.46c-.52-.12-.66-.93-.31-1.78s1.06-1.45,1.58-1.33l5.42,1.35C158.25,92.83,158.39,93.63,158,94.49Z"></path><path class="cls-8" d="M154.57,109.2a2.67,2.67,0,0,1-1.21,2l-6.52,3.31c-.63.32-1.1-.08-1.06-.89a2.67,2.67,0,0,1,1.21-2l6.52-3.31C154.14,108,154.61,108.39,154.57,109.2Z"></path><path class="cls-8" d="M156.61,121.1a2.31,2.31,0,0,1-.52,2.21l-5.87,7.09c-.56.68-1.24.79-1.52.25a2.34,2.34,0,0,1,.52-2.21l5.87-7.09C155.66,120.67,156.34,120.56,156.61,121.1Z"></path><path class="cls-8" d="M192.25,103c.35-.86,1.05-1.45,1.57-1.32l5.42,1.35c.52.13.66.93.31,1.79s-1.05,1.45-1.57,1.32l-5.42-1.35C192,104.65,191.9,103.85,192.25,103Z"></path><path class="cls-8" d="M195.72,88.29a2.61,2.61,0,0,1,1.21-2l6.52-3.31c.62-.32,1.09.08,1.05.88a2.64,2.64,0,0,1-1.21,2l-6.52,3.32C196.14,89.49,195.67,89.1,195.72,88.29Z"></path><path class="cls-8" d="M193.67,76.38a2.34,2.34,0,0,1,.52-2.21l5.87-7.08c.57-.68,1.25-.79,1.52-.25a2.31,2.31,0,0,1-.52,2.21l-5.87,7.08C194.63,76.81,194,76.92,193.67,76.38Z"></path><path class="cls-8" d="M186.66,70.47c-.52-.13-.65-.93-.3-1.79l3.65-9c.35-.86,1.05-1.45,1.57-1.32s.66.93.31,1.79l-3.65,9C187.89,70,187.18,70.6,186.66,70.47Z"></path><path class="cls-9" d="M179.57,123.84l-.29,5.49a7.4,7.4,0,0,1-1.91,4c-2.4,2.9-6.17,4.81-8.39,4.26a2,2,0,0,1-1.54-2.41l.26-4.93a2,2,0,0,0,1.58,1.85c2.21.55,6-1.36,8.38-4.26A7.37,7.37,0,0,0,179.57,123.84Z"></path><path class="cls-15" d="M179.57,123.84l-.29,5.49a7.4,7.4,0,0,1-1.91,4c-2.4,2.9-6.17,4.81-8.39,4.26a2,2,0,0,1-1.54-2.41l.26-4.93a2,2,0,0,0,1.58,1.85c2.21.55,6-1.36,8.38-4.26A7.37,7.37,0,0,0,179.57,123.84Z"></path><g id="Paint_Pot" data-name="Paint Pot"><path class="cls-6" d="M269,190.83l-16.14-.22-.14,13.19h0c0,1.19.76,2.39,2.33,3.32a12.61,12.61,0,0,0,11.41.12c1.6-.9,2.4-2.1,2.4-3.3Z"></path><path class="cls-8" d="M255.21,187.35c-3.17,1.78-3.2,4.73-.07,6.59a12.63,12.63,0,0,0,11.42.12c3.17-1.78,3.2-4.74.07-6.59A12.63,12.63,0,0,0,255.21,187.35Z"></path><path class="cls-16" d="M268.26,190.78a2,2,0,0,1-.12.63,3.86,3.86,0,0,1-1.93,2,12,12,0,0,1-10.71-.11,3.86,3.86,0,0,1-1.87-2,2,2,0,0,1-.12-.68,3.37,3.37,0,0,1,2.05-2.66,10.73,10.73,0,0,1,5.36-1.21,10.83,10.83,0,0,1,5.35,1.33A3.36,3.36,0,0,1,268.26,190.78Z"></path><path class="cls-9" d="M268.14,191.41a3.86,3.86,0,0,1-1.93,2,12,12,0,0,1-10.71-.11,3.86,3.86,0,0,1-1.87-2,3.81,3.81,0,0,1,1.93-2,10.83,10.83,0,0,1,5.36-1.22,11.05,11.05,0,0,1,5.35,1.33A3.92,3.92,0,0,1,268.14,191.41Z"></path><path class="cls-16" d="M264.32,195.77c.36-.2.64,0,.63.38a1.4,1.4,0,0,1-.64,1.09c-.36.2-.64,0-.64-.37A1.44,1.44,0,0,1,264.32,195.77Z"></path><path class="cls-2" d="M252.78,192.93c-.88,1.75-2.65,5.91-.36,7.61l.28.19v.84c-.23-.14-.47-.29-.7-.46-3.42-2.54.44-9.06.61-9.33a.32.32,0,0,1,.19-.15Z"></path><path class="cls-2" d="M264.62,196.67c-.09.21-2.59,5-6.69,5.93a5.67,5.67,0,0,1-1.41.17,7.11,7.11,0,0,1-3.82-1.2v-.84a6.25,6.25,0,0,0,5.07,1.2c3.79-.89,6.21-5.54,6.23-5.58a.34.34,0,0,1,.47-.15A.33.33,0,0,1,264.62,196.67Z"></path></g><path class="cls-13" d="M262.1,229.4a1.17,1.17,0,0,0-.68-1l-25-14.41a3.6,3.6,0,0,0-3.29,0l-37.8,21.82a1.17,1.17,0,0,0-.69.95v3a1.17,1.17,0,0,0,.69.95l25,14.41a3.64,3.64,0,0,0,3.28,0l37.81-21.83a1.15,1.15,0,0,0,.68-.95Z"></path><path class="cls-17" d="M222,252.57v3a3.4,3.4,0,0,1-1.64-.39l-25-14.42a1.14,1.14,0,0,1-.67-.94v-3a1.15,1.15,0,0,0,.67.95l25,14.41A3.29,3.29,0,0,0,222,252.57Z"></path><path class="cls-4" d="M195.37,235.86,233.17,214a3.6,3.6,0,0,1,3.29,0l25,14.41a1,1,0,0,1,0,1.9l-37.81,21.82a3.58,3.58,0,0,1-3.28,0l-25-14.41A1,1,0,0,1,195.37,235.86Z"></path><path class="cls-9" d="M236.46,214a3.6,3.6,0,0,0-3.29,0l-37.8,21.82a1,1,0,0,0,0,1.9l8.94,5.16h0s9.41,2.27,13.42-.36,2.32-9,7.43-10.75,12.87.51,19.93-1.94,7.17-6.71,7.17-6.71h0Z"></path><path class="cls-9" d="M236.46,214a3.6,3.6,0,0,0-3.29,0l-37.8,21.82a1,1,0,0,0,0,1.9l8.94,5.16h0s9.41,2.27,13.42-.36,2.32-9,7.43-10.75,12.87.51,19.93-1.94,7.17-6.71,7.17-6.71h0Z"></path><path class="cls-9" d="M194.69,236.81v3a1.14,1.14,0,0,0,.67.94l8.95,5.17v-3h0l-8.95-5.16A1.15,1.15,0,0,1,194.69,236.81Z"></path><path class="cls-10" d="M194.69,236.81v3a1.14,1.14,0,0,0,.67.94l8.95,5.17v-3h0l-8.95-5.16A1.15,1.15,0,0,1,194.69,236.81Z"></path><path class="cls-8" d="M175.26,211.17c-.45-1,1.83-1.87,3.46-1.7.74.07,1.71.68,2.45.71,1.11.06,2.46-.3,3.68-.27a1.64,1.64,0,0,1,1.71,2.31c-.31,1-2.53,1.8-2.53,1.8l-4.37-1.09C177.53,212.72,175.92,212.21,175.26,211.17Z"></path><path class="cls-16" d="M185.32,211.72c-.57,0-.22,2.07-.91,2.55-.36.25-2.62-1.39-3.86-1.76s-4.2.1-5.29-1.34a2.28,2.28,0,0,0,.72,1,30.86,30.86,0,0,0,4.8,3.11c1.74.85,5.7,2.31,5.7,2.31Z"></path><path class="cls-9" d="M204.88,221c.15,3.71-5.92,4.44-11.25,1.89a47.87,47.87,0,0,1-9.48-6,10.7,10.7,0,0,1-2.66-14.64l15.43-.8c2.69,3.11,12.35,7.25,15.58,14.61,1.56,3.89-3.79,5.94-7.62,5Z"></path><path class="cls-15" d="M204.88,221c.15,3.71-5.92,4.44-11.25,1.89a47.87,47.87,0,0,1-9.48-6c-4.54-3.4-5.9-8.54-2.66-14.64l15.43-.8c2.69,3.11,12.35,7.25,15.58,14.61,1.56,3.89-3.79,5.94-7.62,5Z"></path><path class="cls-18" d="M204.88,221c-.4-3.49-3.06-5.21-5.34-6.91s-7.07-4.62-7.07-4.62a5.13,5.13,0,0,0,4.57-1.7,3.34,3.34,0,0,1-1.54,2.37s6.64,3.8,8.62,7A5.37,5.37,0,0,1,204.88,221Z"></path><path class="cls-19" d="M218.37,182.67c-1.47-2.12-2.24-1.53-2.81.41a9.35,9.35,0,0,1-1.18,2.5c0-.63-1.61.31-1.72,1.65a1.91,1.91,0,0,1-.38,1.11c-1.28,1.62-4.94,4.38-7.53,6.38l-6.94-8.91c-2.38-3-3.14-4.22-5.9-4.51A5.58,5.58,0,0,1,194,183c1.08,1.29-.3,7.35-.3,7.35s8.19,8.37,9,9.18l.39.33a2.33,2.33,0,0,0,2.9,0,83.44,83.44,0,0,0,8.06-8.25c1.3-1.49,2-2.08,2.82-2.91C218.75,186.84,219.29,184,218.37,182.67Z"></path><path class="cls-9" d="M186.27,181.47h0c-3.63.24-3.88,2-4.79,3.91a6.21,6.21,0,0,0-.17,4.68l2.53,7.31s-1,2.18-2.35,4.89c6.34,3.54,14.06,2.35,16-.23.08-.55-.41-4.83-.71-7.63,1.12-2.8,1.41-4.58.94-6.43-.87-3.44-4.27-6.79-5.77-6.67Z"></path><path class="cls-10" d="M183.33,198.49c-.22.46-.5,1-.83,1.72l-.17.36c-.08.15-.16.31-.23.47l-.61,1.22.7.37a17.41,17.41,0,0,0,12.13,1.27,18.42,18.42,0,0,1-6.43-.28A3.83,3.83,0,0,1,185,199a1.67,1.67,0,0,1,.06-.2,1.25,1.25,0,0,1,1.29-.85,3.77,3.77,0,0,1-1.59-2.36l-.33-1a11.91,11.91,0,0,1-.11-7.14l0-.06-2.7-1.54-.47.33h0a5.67,5.67,0,0,0-.26,1.47h0c0,.13,0,.26,0,.39a1.09,1.09,0,0,1,0,.18c0,.1,0,.21,0,.32l0,.25a2.51,2.51,0,0,0,0,.27c0,.11,0,.22.07.33a1.55,1.55,0,0,0,0,.21c0,.17.1.35.16.53l2.53,7.31Z"></path><path class="cls-16" d="M197.53,180.29h-8a7.69,7.69,0,0,1-7.69-7.68V171a8.13,8.13,0,0,1,8.12-8.12h0a7.53,7.53,0,0,1,7.53,7.53Z"></path><path class="cls-19" d="M194.94,167.26c.4.21,1.48,2.28,1.38,6.8-.09,3.83-1.33,4.78-1.95,5.05a6.58,6.58,0,0,1-3-.09v2.3s1.62,1.88,1.51,2.93-2.33,1.31-3.84.28a9.8,9.8,0,0,1-2.48-2.6v-5.56a1.47,1.47,0,0,1-2.08.2,2.74,2.74,0,0,1-.59-3.75,1.67,1.67,0,0,1,2.67.54,6.74,6.74,0,0,0,4.43-1.31C193.73,170.29,194.58,168.88,194.94,167.26Z"></path><path class="cls-16" d="M195.56,171.54l-1.07-.51a.57.57,0,0,1,.77-.29A.62.62,0,0,1,195.56,171.54Z"></path><path class="cls-16" d="M191.13,171.2l-1,.64a.56.56,0,0,1,.16-.81A.62.62,0,0,1,191.13,171.2Z"></path><path class="cls-16" d="M186.51,172.3l.07,2.34a1.12,1.12,0,0,0,1.16-1.16A1.23,1.23,0,0,0,186.51,172.3Z"></path><path class="cls-16" d="M185.4,164.78l-1-2.12a1.13,1.13,0,0,0-.59,1.54A1.24,1.24,0,0,0,185.4,164.78Z"></path><path class="cls-16" d="M184.86,164.64l-2.34-.2a1.14,1.14,0,0,0,1,1.29A1.23,1.23,0,0,0,184.86,164.64Z"></path><path class="cls-16" d="M191.61,173a.48.48,0,0,1-.45.52.5.5,0,1,1,.45-.52Z"></path><path class="cls-20" d="M192.17,176.34l1.12.36a.58.58,0,0,1-.73.4A.62.62,0,0,1,192.17,176.34Z"></path><path class="cls-16" d="M195.34,172.75a.48.48,0,1,1-1,0,.48.48,0,0,1,.45-.52A.5.5,0,0,1,195.34,172.75Z"></path><polygon class="cls-20" points="192.99 172.47 193.06 175.37 194.59 174.9 192.99 172.47"></polygon><path class="cls-20" d="M191.37,179c-1.23-.16-3.77-.89-4.16-1.89a2.58,2.58,0,0,0,.89,1.28,13.19,13.19,0,0,0,3.27,1.38Z"></path><path class="cls-19" d="M189.6,211.32c2.15-1.42,1.58-2.2-.35-2.81a9.17,9.17,0,0,1-2.28-1.07,4.92,4.92,0,0,0,1.25-.1.89.89,0,0,0,.73-1c0-.19-.5,0-1.26-.23a8.4,8.4,0,0,0-2.52-.63,1.67,1.67,0,0,1-1.11-.4c-1.59-1.31-4.19-5.26-6.14-7.89,1.88-2.12,6.14-8.6,6.14-8.6a6.22,6.22,0,0,0,.48-6.87c-1.82.19-3.59,2-5.82,5.46-5,7.73-7,9.31-5.58,11.33a96.79,96.79,0,0,0,7.4,8.49,30.29,30.29,0,0,0,3.13,2.73C186.63,212.09,188.26,212.22,189.6,211.32Z"></path><path class="cls-8" d="M216.05,180.86v6.36a.42.42,0,0,1-.25.34,1.36,1.36,0,0,1-1.18,0,.43.43,0,0,1-.24-.34v-6.36Z"></path><polygon class="cls-6" points="214.38 182.49 216.05 183.46 216.05 180.86 214.38 180.86 214.38 182.49"></polygon><path class="cls-6" d="M213.54,175.76v1.29l-1.12-.64v2.66a2.77,2.77,0,0,0,1.25,2.17l2,1.14a.9.9,0,0,0,.85.11s1-.56,1.19-.69A.9.9,0,0,0,218,181v-2.66Z"></path><path class="cls-8" d="M215.63,182.38l-2-1.14a2.77,2.77,0,0,1-1.25-2.17v-2.66l4.47,2.58v2.66C216.89,182.46,216.33,182.78,215.63,182.38Z"></path><polygon class="cls-13" points="216.9 178.99 212.41 176.41 212.41 172.53 216.9 175.11 216.9 178.99"></polygon><polygon class="cls-2" points="216.9 178.99 216.9 175.11 218.02 174.47 218.02 178.35 216.9 178.99"></polygon><polygon class="cls-9" points="216.89 180.15 212.41 177.56 212.41 178.09 216.89 180.7 216.89 180.15"></polygon><polygon class="cls-9" points="216.89 180.15 218.01 179.5 218.01 180.06 216.89 180.7 216.89 180.15"></polygon><polygon class="cls-10" points="216.89 180.15 218.01 179.5 218.01 180.06 216.89 180.7 216.89 180.15"></polygon><path class="cls-9" d="M218,175.65s-.38.93-1.12,1v-1.52l1.12-.64Z"></path><path class="cls-10" d="M218,175.65s-.38.93-1.12,1v-1.52l1.12-.64Z"></path><path class="cls-9" d="M216.9,176.63a1.64,1.64,0,0,1-1.53-.18c-.53-.4-.71-1.79-1.74-1.82a1.62,1.62,0,0,0-1.21.74v-2.84l4.48,2.58Z"></path><polygon class="cls-9" points="212.41 172.53 213.54 171.88 218.02 174.47 216.9 175.11 212.41 172.53"></polygon><polygon class="cls-12" points="212.41 172.53 213.54 171.88 218.02 174.47 216.9 175.11 212.41 172.53"></polygon><path class="cls-19" d="M212.63,187.47a7.76,7.76,0,0,1,.16-2.59,6.63,6.63,0,0,1,2.1-2.09c.47-.29.92,0,.68.9a7.38,7.38,0,0,1-.92,1.72,2.59,2.59,0,0,0-.27,1Z"></path><path class="cls-10" d="M115.21,117.12a1.92,1.92,0,0,0-2-.18l-13.68,7.9a1.9,1.9,0,0,0-.82,1.78,6.06,6.06,0,0,0,2.74,4.75,1.9,1.9,0,0,0,2,.18l13.67-7.89a1.91,1.91,0,0,0,.83-1.79A6.06,6.06,0,0,0,115.21,117.12Z"></path><path class="cls-21" d="M134.41,172.78s-4.37.18-5.6.16c-3.17-3.26-7.77-8-8.76-9.29-1.34-2.5-2.49-4.8-3.65-5s-3.65.44-4.25,1.52c-.42.76.52,2.92,1.34,2.39.39.7.82,2.54,2.91,3.19,3.26,3.9,7,8.95,9,11.33a3,3,0,0,0,3.93.22Z"></path><path class="cls-16" d="M147.46,244.52c.27.11.32.63.34,1.66,0,.78.15,2.14-.77,2.4a2.85,2.85,0,0,1-2.82-.67c-.71-.93-1.18-1.75-2.2-2.89a7.87,7.87,0,0,1-2.17-3.29c-.31-1.24,0-1.77.83-2.1,1.16-.47,2.94,1.18,3.84,1.45S147.19,244.41,147.46,244.52Z"></path><path class="cls-21" d="M147.48,243.57l0,1.26a3.11,3.11,0,0,1-3.2,0c-.05-.13-.29-1.82-.29-1.82Z"></path><path class="cls-16" d="M137.05,251.58s.34,1.11.52,2.07a5.69,5.69,0,0,1,.05,2.62c-.28.57-1.34.92-3,.87a9.58,9.58,0,0,0-3.83,1.24A10,10,0,0,1,126,259c-1.44-.2-2.91-1.07-3.13-1.67s.1-1.21,3.53-2.58c0,0,4.75-1.44,6.43-3.21Z"></path><path class="cls-21" d="M137.08,250.21s0,.94,0,1.48-.66,1.32-2.3,1.22c-1.15-.07-1.94-.39-1.88-1.34l0-1.37Z"></path><path class="cls-6" d="M148.68,226.81a34.37,34.37,0,0,0-1.35-6.62s.58-5.68.92-11.06c.37-5.81.29-13.13.43-14.58,0,0-18.69-4.22-19.18,2.5s.21,23.86.36,26.82.61,5.59,1.11,10.39,1.93,15.94,1.93,15.94a4.43,4.43,0,0,0,4.18,0s1.63-13.42,1.57-16.83a29.19,29.19,0,0,0-1.13-7.47s.48-5.54.91-10.36.8-7.13.92-9.22l.41-.19s.23,8.33.38,11.29.56,5.8,1.29,11.31c.64,4.78,2.62,14.9,2.62,14.9a2.82,2.82,0,0,0,3.43-.07S149.17,231,148.68,226.81Z"></path><path class="cls-16" d="M139.35,206.33a39.46,39.46,0,0,0,6.93-4.12,15,15,0,0,1-5,4.2s-1.22,10.31-1.21,10.11l-.34-10.2Z"></path><polygon class="cls-21" points="136.1 167.77 137.14 173.92 142.94 173.41 141.74 166.67 136.1 167.77"></polygon><path class="cls-9" d="M148.51,173.52c-.51-1.67-2.58-3.53-4.7-3.18l-1.37.23c0,1.07-3,1.84-5.68,1.21-.81.21-1.56.43-2.24.66-2,.64-3.75,2.27-4.05,8.63,0,0-1,14.8-1.06,17.67a23.5,23.5,0,0,0,12.66,1.54c5.84-1.14,6.59-3.54,6.59-3.54s.32-10.65.25-15.26C148.85,177.57,148.86,174.67,148.51,173.52Z"></path><path class="cls-22" d="M132.22,159.75s-1.71,2-1.57,2.25,1.18.56,1.18.56Z"></path><path class="cls-21" d="M136.94,154.19c-3,.26-4.43,1.32-5,6.06s-.14,6.56.41,7.29c.38.49,2.49.66,3.73.47,1.56-.23,5.11-1,7-3.27,2.22-2.64,3.18-6.46,1.37-8.3C141.92,153.86,138.16,154.08,136.94,154.19Z"></path><path class="cls-16" d="M131.71,155.88l.09.08c.56.54,1.29.88,1.88,1.39a4.39,4.39,0,0,1,1.33,2.12c.2.68.27,1.48,1,1.79,0,0,.46-1.8,2-1.57s1.73,2.17.77,3.36-1.86.73-1.86.73a8,8,0,0,0,1.19,4,7.76,7.76,0,0,0,3.68-.09c1.47-.31,3.55-2.15,4.42-4.09,1.85-4.11,2-7.81-.65-8.92-.28-1.89-1.77-2.74-3.47-3.13-2.55-.58-4.92.92-7.44.36a14.3,14.3,0,0,0-1.57-.37.36.36,0,0,0-.18,0c-.13.07-.12.25-.09.39a3.42,3.42,0,0,0,.74,1.36,7.9,7.9,0,0,1-2.85-.36A3.7,3.7,0,0,0,131.71,155.88Z"></path><path class="cls-16" d="M145.6,155.35l1.75-1a1,1,0,1,0-1.75,1Z"></path><path class="cls-16" d="M136,162.29l0-2a1,1,0,1,0,0,2Z"></path><path class="cls-6" d="M119.89,179.47h0L117.8,166.1l-2.8.44L117.09,180h0a.48.48,0,0,0,.22.32,2.15,2.15,0,0,0,2,0C119.71,180.06,119.94,179.74,119.89,179.47Z"></path><path class="cls-8" d="M115.22,166.89a2.15,2.15,0,0,0,2,0c.65-.31.84-.82.41-1.13a2.15,2.15,0,0,0-2,0C115,166.07,114.8,166.58,115.22,166.89Z"></path><polyline class="cls-23" points="115.72 116.33 116.61 115.81 117.51 121.63"></polyline><path class="cls-9" d="M118.47,117.91a6,6,0,0,0-2.75-4.75,1.9,1.9,0,0,0-2-.18l-13.71,7.91,3.88,6.71,13.7-7.9A1.91,1.91,0,0,0,118.47,117.91Z"></path><path class="cls-9" d="M118.47,117.91a6,6,0,0,0-2.75-4.75,1.9,1.9,0,0,0-2-.18l-13.71,7.91,3.88,6.71,13.7-7.9A1.91,1.91,0,0,0,118.47,117.91Z"></path><path class="cls-24" d="M118.47,117.91a6,6,0,0,0-2.75-4.75,1.9,1.9,0,0,0-2-.18l-13.71,7.91,3.88,6.71,13.7-7.9A1.91,1.91,0,0,0,118.47,117.91Z"></path><path class="cls-25" d="M116.85,114.1,103.14,122a4.86,4.86,0,0,0-1.13-.93,2,2,0,0,0-1.82-.26L113.77,113a1.93,1.93,0,0,1,2,.19A4.91,4.91,0,0,1,116.85,114.1Z"></path><path class="cls-9" d="M102,121.08a6.06,6.06,0,0,1,2.74,4.75c0,1.75-1.23,2.46-2.74,1.58a6,6,0,0,1-2.75-4.75C99.26,120.91,100.49,120.2,102,121.08Z"></path><path class="cls-25" d="M102,121.08a6.06,6.06,0,0,1,2.74,4.75c0,1.75-1.23,2.46-2.74,1.58a6,6,0,0,1-2.75-4.75C99.26,120.91,100.49,120.2,102,121.08Z"></path><path class="cls-26" d="M100.19,120.82l-.12.08h0Z"></path><polyline class="cls-23" points="117.51 121.63 102 130.58 101.11 124.76 102 124.25"></polyline><line class="cls-23" x1="116.39" y1="166.08" x2="110.24" y2="125.83"></line><path class="cls-21" d="M133.77,172.75c-2.34.34-3.94,2.15-6.56,5.36-2.33,2.86-4.48,6.16-4.48,6.16s-4-7.08-4.34-8.62.32-2,.71-4.12a2.88,2.88,0,0,0-.92-3l.15,1a2.14,2.14,0,0,1-1.54,1.62s-1.09,0-1.33-1.56l-.35-2.29s-1.5.1-1.61,3.64c-.1,2.74.55,4,1,5.86.4,1.59,2.41,9.18,4.68,12.9.88,1.43,2,3.12,4.85.79s8.86-8.85,8.86-8.85S136,178.61,133.77,172.75Z"></path><path class="cls-6" d="M134.52,172.44a7.84,7.84,0,0,0-5.11,2.72c-1.74,1.9-5.38,6.72-5.38,6.72a6.53,6.53,0,0,0,4,5.22l5.69-5.61a8.29,8.29,0,0,0,2.06-4.75C136.05,173.08,134.52,172.44,134.52,172.44Z"></path><path class="cls-22" d="M114.19,159.73a5.25,5.25,0,0,1,.81,1.68c.15.52.19,2,2,2.24,0,0-.15-2.37-1-3.18A2.68,2.68,0,0,0,114.19,159.73Z"></path><path class="cls-21" d="M117.27,163.78c-1.86-1-1.39-2-2.38-3.13s-1-1.37-.87-1.75.31-.3.79-.19c1.21.27,2,1.54,2.62,2.5Z"></path><path class="cls-22" d="M113.49,162.56a.51.51,0,0,0,.13-.3.57.57,0,0,0,.57.15.67.67,0,0,0,.45-.57.69.69,0,0,1-.45.72c-.5.14-.51-.08-.51-.08a.43.43,0,0,1-.12.22"></path><g class="cls-27"><path class="cls-28" d="M178.23,257.37a3.67,3.67,0,0,1,3.35,0l9.46,5.4a1,1,0,0,1,0,1.94l-37.33,21.93a3.67,3.67,0,0,1-3.35,0l-9.46-5.4c-.93-.53-1-1.4,0-1.94Z"></path></g><g id="WP"><g id="Wordpress"><path class="cls-29" d="M141.79,243.53l.08,31.43c0,2,.7,3.34,1.82,4l7.72,4.49-.1-.06c1.14.72,2.74.65,4.52-.37l27.36-15.79a13.68,13.68,0,0,0,6.19-10.74L189.29,225c0-2-.7-3.35-1.82-4h0l-7.72-4.48c-1.13-.66-2.7-.57-4.42.43L148,232.79A13.64,13.64,0,0,0,141.79,243.53Z"></path><g class="cls-30"><path class="cls-31" d="M141.87,275l7.72,4.48c0,2,.7,3.34,1.82,4l-7.72-4.49C142.57,278.3,141.88,276.92,141.87,275Z"></path><path class="cls-32" d="M183.06,221.49,175.34,217c1.72-1,3.29-1.09,4.42-.43l7.72,4.48C186.35,220.4,184.78,220.49,183.06,221.49Z"></path><polygon class="cls-32" points="149.59 279.44 141.88 274.96 141.78 243.53 149.51 248.01 149.59 279.44"></polygon><polygon class="cls-32" points="155.7 237.28 147.98 232.79 175.34 217 183.06 221.49 155.7 237.28"></polygon><path class="cls-32" d="M149.51,248l-7.72-4.48A13.64,13.64,0,0,1,148,232.79l7.72,4.49A13.64,13.64,0,0,0,149.51,248Z"></path></g></g><path class="cls-33" d="M170,235.28c8.6-5,15.62-1,15.65,8.91s-6.95,22-15.55,26.93-15.62,1-15.65-8.92S161.35,240.24,170,235.28Zm1.93,9.38,5,14.18,1.37-6.09a30,30,0,0,0,1-5.73,5.84,5.84,0,0,0-1.16-3.72,4.5,4.5,0,0,1-1.36-2.94,5.24,5.24,0,0,1,2.31-4.16l.18-.08c-2.46-1.17-5.74-.87-9.34,1.21-4.82,2.79-9.06,8.08-11.51,13.81.32-.17.62-.33.88-.49,1.45-.83,3.57-2.25,3.69-2.33.74-.43.82.74.08,1.26,0,0-.74.53-1.57,1.06l5.07,14.29,3-12.16-2.17-5.53c-.75.38-1.42.67-1.45.68-.74.38-.67-.93,0-1.33,0,0,2.32-1.14,3.68-1.92s3.57-2.26,3.68-2.33c.74-.43.82.74.09,1.26,0,0-.75.53-1.58,1.06m-15.69,16.51c0,6.28,3.21,9.88,7.82,9.79L157.36,254a23.64,23.64,0,0,0-1.17,7.14M177,262.9c4.09-5.12,6.84-11.82,6.82-17.67a12,12,0,0,0-1.71-6.64,12.36,12.36,0,0,1,.1,1.58,22.47,22.47,0,0,1-1,6.28L177,262.9M170,269.07a22.94,22.94,0,0,0,4.58-3.55.68.68,0,0,1-.09-.17l-4.29-10.9-4.1,16.22a14.76,14.76,0,0,0,3.9-1.6"></path></g></g></g></g></svg> 