<?xml version="1.0" encoding="utf-8"?>
<!-- Generator: Adobe Illustrator 19.1.0, SVG Export Plug-In . SVG Version: 6.00 Build 0)  -->
<svg version="1.1" id="Layer_1" xmlns="http://www.w3.org/2000/svg" xmlns:xlink="http://www.w3.org/1999/xlink" x="0px" y="0px"
	 viewBox="0 0 773 747" style="enable-background:new 0 0 773 747;" width="773px" height="747px" xml:space="preserve">
<style type="text/css">
	.st0{fill:#2CD7B8;}
	.st1{fill:#FFFFFF;}
	.st2{fill:#7D96FF;}
	.st3{fill:#C180FF;}
	.st4{opacity:0.1;fill:#231F20;}
	.st5{fill:#192451;}
	.st6{fill:#00BEA4;}
	.st7{fill:#22E8B5;}
	.st8{fill:#64FFD9;}
	.st9{fill:#FFC9B1;}
	.st10{fill:#D88E7D;}
	.st11{fill:#FFA6C8;}
	.st12{fill:#FFE357;}
	.st13{fill:#7448FF;}
	.st14{fill:#3350FE;}
	.st15{opacity:0.1;}
	.st16{opacity:0.15;}
	.st17{fill:#291B6D;}
	.st18{fill:#FF94D4;}
	.st19{fill:#262051;}
	.st20{fill:#231F20;}
	.st21{fill:#001C4C;}
	.st22{fill:#B76256;}
	.st23{fill:#EA7DC3;}
	.st24{fill:#011D2A;}
</style>
<path class="st0" d="M735,618.1H270.2c-9.9,0-18-8.1-18-18V19.7c0-9.9,8.1-18,18-18H735c9.9,0,18,8.1,18,18v580.5
	C753,610.1,744.9,618.1,735,618.1z"/>
<rect x="387.1" y="147.8" class="st1" width="337.4" height="23.9"/>
<rect x="381.1" y="211.2" class="st1" width="303.6" height="23.9"/>
<path class="st2" d="M682.1,85.2H315.7c-10.4,0-18.7-8.4-18.7-18.7v0c0-10.4,8.4-18.7,18.7-18.7h366.5c10.4,0,18.7,8.4,18.7,18.7v0
	C700.9,76.8,692.5,85.2,682.1,85.2z"/>
<path class="st3" d="M452.9,85.2H315.7c-10.4,0-18.7-8.4-18.7-18.7v0c0-10.4,8.4-18.7,18.7-18.7h117.1L452.9,85.2z"/>
<g>
	<path class="st4" d="M553.1,43.4l-68.7,68.7c82.3,94.1,78.6,237.2-11.1,326.9c-1.5,1.5-2.9,2.9-4.4,4.3l84.2,84.5
		C686.9,394,686.9,177.1,553.1,43.4z"/>
</g>
<path class="st5" d="M591.1,561.7c-0.3,0-0.5-0.1-0.7-0.3c-0.4-0.4-0.4-1,0-1.4c65.3-65.3,106-151.8,114.5-243.6
	c0.1-0.6,0.5-1,1.1-0.9c0.6,0.1,1,0.5,0.9,1.1c-4.2,45.3-16,89.1-35,130.3c-19.7,42.6-46.6,81.1-80.1,114.6
	C591.6,561.7,591.4,561.7,591.1,561.7z"/>
<g>
	<path class="st6" d="M542.1,27.4l-72.8,72.8c93.5,93.5,93.6,245.1,0.1,338.6l72.7,72.9C675.9,378,675.9,161.1,542.1,27.4z"/>
</g>
<path class="st7" d="M542.1,27.4l-72.8,72.8c93.5,93.5,93.6,245.1,0.1,338.6l72.7,72.9C675.9,378,675.9,161.1,542.1,27.4z"/>
<g>
	<path class="st8" d="M626,164.5L528,205.7l1,1.8l97.6-41C626.4,165.7,626.2,165.1,626,164.5z"/>
	<path class="st8" d="M499.6,377.3l-0.5,1.9l108.2,41.5c0.3-0.6,0.6-1.2,0.9-1.8L499.6,377.3z"/>
	<path class="st8" d="M580,466.7l-86.2-67.5l-0.6,2.1l85.6,67C579.3,467.8,579.7,467.3,580,466.7z"/>
	<path class="st8" d="M640.9,236.7c-0.1-0.7-0.1-1.3-0.2-2l-108.8,20.4l-0.6,2.1L640.9,236.7z"/>
	<path class="st8" d="M637.6,212.3l-101.3,25.6l-0.6,2.2l102.2-25.8C637.8,213.6,637.7,213,637.6,212.3z"/>
	<path class="st8" d="M518.8,189.1l95.5-55.7c-0.3-0.6-0.5-1.2-0.8-1.8l-95.6,55.8L518.8,189.1z"/>
	<path class="st8" d="M510,337.9l120.1,22.8c0.2-0.6,0.4-1.3,0.5-1.9l-120.1-22.8L510,337.9z"/>
	<path class="st8" d="M503.4,363l-0.5,2l124.7,4.3c0.2-0.7,0.4-1.3,0.6-2L503.4,363z"/>
	<path class="st8" d="M501,372l120.3,16.2c0.2-0.6,0.5-1.3,0.7-1.9L501.6,370L501,372z"/>
	<path class="st8" d="M494.9,395.1l99.1,50.2c0.3-0.6,0.7-1.1,1-1.7l-99.6-50.4L494.9,395.1z"/>
	<path class="st8" d="M635.8,336.9l-122.3-12.2l-0.5,2l122.4,12.2C635.5,338.2,635.6,337.5,635.8,336.9z"/>
	<path class="st8" d="M512.9,178.5l1,1.8l94-60.8c-0.5-1.1-1.1-2.2-1.6-3.2L508.7,171l1,1.7l92-51.6L512.9,178.5z"/>
	<path class="st8" d="M490,137.4l1,1.8l87-69.6c-0.4-0.5-0.8-1.1-1.2-1.6L490,137.4z"/>
	<path class="st8" d="M641.4,243.2l-111.1,17.5l-0.6,2.1l111.8-17.6C641.5,244.6,641.5,243.9,641.4,243.2z"/>
	<path class="st8" d="M601.9,107.8l-96.8,56.7l1,1.7l96.7-56.7C602.5,109,602.2,108.4,601.9,107.8z"/>
	<path class="st8" d="M502.5,159.8l1,1.8l94.9-60.1c-0.3-0.6-0.7-1.2-1-1.7L502.5,159.8z"/>
</g>
<g>
	<rect x="307.5" y="147.8" class="st8" width="196.9" height="23.9"/>
	<rect x="323.1" y="211.2" class="st8" width="184.8" height="23.9"/>
</g>
<g>
	<path class="st9" d="M243.6,320.6c0,0,25-65.1,30.9-77.5c5.9-12.5,5.3-18.2,12.9-27.3c3.3-3.9,11.9-16.5,16.1-14.8
		c5.7,2.2-3.8,14.3-3.8,14.3s7.5-7.9,11.8-12.4c1.4-1.5,5.4-3.7,6.8-4.4c7.8-4.1,11.1-3.8,11.3-0.6c0.1,1.5-1,3.8-3.6,5.5
		c-0.7,0.5-4.5,3.3-6.8,5.1c-1.8,1.5-7.5,8-7.2,7.9c0.8-0.5,6.6-6.4,12.3-8.6c4-1.6,4.5-1.7,5.5-2c5.3-1.6,7.6-0.4,6,2.9
		c-1.7,3.4-11,10.6-11,10.6c-0.2,1,15.3-8.4,13.4-2.1c-0.7,2.3-15.4,8.1-15.7,8.4c-1.3,1,12.2-3.3,12.8-3.4c1.8-0.1,2.7,2.6,0.5,4.2
		c-1,0.7-13.7,8-16.3,9.8c-1.4,0.9-6,7-7.5,9c-2,2.8-3.5,7.2-12.1,30.7c-8.5,23.2-20.8,62.4-26.2,65
		C268.6,343.3,243.6,320.6,243.6,320.6z"/>
	<path class="st10" d="M297.1,236.5c-0.1,0-0.2,0-0.3,0c-0.5-0.2-0.8-0.7-0.6-1.3l0.2-0.6c0.8-2.5,2.4-7.2,1.1-11.5
		c-0.8-2.8,1.9-9.7,2.2-10.4c0.2-0.5,0.8-0.8,1.3-0.6c0.5,0.2,0.8,0.8,0.6,1.3c-1.1,2.7-2.6,7.5-2.1,9.1c1.4,4.9-0.3,10-1.2,12.7
		l-0.2,0.6C297.9,236.2,297.5,236.5,297.1,236.5z"/>
</g>
<g>
	<path class="st1" d="M505.5,669.3c6.5,18.3,10,19.6,19.7,33.4c14.1,20.2,18.9,35,8,41.2c-23.9,13.4-82.6-20.3-97.4-29.2
		c-2.2-1.4-4-3.3-5.2-5.6l-2.4-4.8c0,0-3.7-10.2-6.9-29C418.1,656.5,505.5,669.3,505.5,669.3z"/>
	<g>
		<path class="st11" d="M510,738.7c-20.6-1.7-70.4-29.2-82.3-35.9c0.3,0.9,0.5,1.4,0.5,1.4l1.6,4.3c1.2,2.3,3.8,4.7,6.1,6
			c14.8,9,73.5,42.7,97.4,29.2c4.4-2.5,6.5-6.3,6-11.2C534.7,735.7,525.1,740,510,738.7z"/>
	</g>
	<path class="st11" d="M493.6,735.6C493.6,735.6,493.6,735.6,493.6,735.6c-0.6,0-1-0.5-1-1.1c0-0.3,0.6-7.8,5.2-14.1
		c9.1-12.5,29.7-12,30.6-11.9c0.6,0,1,0.5,1,1c0,0.6-0.5,1-1,1c-0.2,0-20.5-0.5-28.9,11.1c-4.3,5.9-4.8,13-4.8,13.1
		C494.6,735.2,494.1,735.6,493.6,735.6z"/>
	<path class="st11" d="M501,707c-2.9,0-5.7-0.6-7.9-1.9c-5.1-3.3-13.8-10.8-17.3-15.5c-2.3-3.2-4.8-14-4.9-14.4l2-0.4
		c0.7,3,2.8,11.3,4.6,13.7c3.3,4.5,11.8,11.9,16.7,15c4,2.5,11.2,1.8,15.9-0.3c2.6-1.2,4.3-2.7,4.5-4.2c0.6-4-5.1-10.9-8.9-15.5
		c-1.6-1.9-2.9-3.5-3.4-4.5c-1.7-3.2-2.7-8.2-2.8-8.4l2-0.4c0,0,1,5,2.6,7.9c0.4,0.8,1.7,2.4,3.2,4.1c4.2,5.1,10,12.2,9.3,17.1
		c-0.3,2.2-2.3,4.2-5.6,5.7C508.1,706.2,504.4,707,501,707z"/>
	<path class="st11" d="M458.4,720.1c-0.5,0-1-0.4-1-1c-0.3-25.3-14-36.7-14.2-36.8c-0.4-0.3-0.5-1-0.1-1.4c0.3-0.4,1-0.5,1.4-0.2
		c0.6,0.5,14.6,12,14.9,38.4C459.4,719.7,459,720.1,458.4,720.1C458.4,720.1,458.4,720.1,458.4,720.1z"/>
	<polygon class="st4" points="422.8,683.2 424.8,692.4 506,671.5 505.5,669.3 487.3,653.9 	"/>
	<path class="st11" d="M489.8,701.3c-0.4,0-0.8-0.3-1-0.7c-0.1-0.5,0.2-1.1,0.7-1.2l23.8-6.5c0.5-0.1,1.1,0.2,1.2,0.7
		c0.1,0.5-0.2,1.1-0.7,1.2l-23.8,6.5C490,701.3,489.9,701.3,489.8,701.3z"/>
	<path class="st11" d="M482.1,694.7c-0.4,0-0.8-0.3-1-0.7c-0.1-0.5,0.2-1.1,0.7-1.2l26-7.2c0.5-0.1,1.1,0.2,1.2,0.7
		c0.1,0.5-0.2,1.1-0.7,1.2l-26,7.2C482.3,694.7,482.2,694.7,482.1,694.7z"/>
</g>
<path class="st11" d="M475.2,686.8c-0.4,0-0.8-0.3-1-0.7c-0.1-0.5,0.2-1.1,0.7-1.2l27.3-7.2c0.5-0.1,1.1,0.2,1.2,0.7
	c0.1,0.5-0.2,1.1-0.7,1.2l-27.3,7.2C475.4,686.7,475.3,686.8,475.2,686.8z"/>
<path class="st12" d="M399.1,592.4H153.5c-2.8,0-5-2.2-5-5s2.2-5,5-5h245.7c2.8,0,5,2.2,5,5S401.9,592.4,399.1,592.4z"/>
<path class="st13" d="M120.1,592.4H19.4c-2.8,0-5-2.2-5-5s2.2-5,5-5h100.7c2.8,0,5,2.2,5,5S122.9,592.4,120.1,592.4z"/>
<path class="st11" d="M269.1,528.9H19.4c-2.8,0-5-2.2-5-5s2.2-5,5-5h249.7c2.8,0,5,2.2,5,5S271.9,528.9,269.1,528.9z"/>
<g>
	<path class="st14" d="M669.8,582.9L544.6,457.7l-29,2.4l-8.1-8.1l-21.8-21.8l-25.2,25.2l25.1,25.1l4.8,4.8l-2.4,29l125.2,125.2
		c15.6,15.6,40.9,15.6,56.6,0h0C685.4,623.8,685.4,598.5,669.8,582.9z"/>
	<path class="st15" d="M500.5,445l7.5,7.5c-4.3,9.5-13.8,22.5-21.1,29.3L470,464.8L500.5,445z"/>
</g>
<path class="st14" d="M299.9,539.1c-72,0-139.7-28-190.6-79c-50.9-50.9-79-118.6-79-190.6c0-72,28-139.7,79-190.6
	C160.2,28,227.9,0,299.9,0s139.7,28,190.6,79c50.9,50.9,79,118.6,79,190.6c0,72-28,139.7-79,190.6
	C439.6,511.1,371.9,539.1,299.9,539.1z M299.9,60.1c-53.7,0-107.3,20.4-148.2,61.3c-39.6,39.6-61.4,92.2-61.4,148.2
	c0,56,21.8,108.6,61.4,148.2c81.7,81.7,214.7,81.7,296.4,0c39.6-39.6,61.4-92.2,61.4-148.2c0-56-21.8-108.6-61.4-148.2
	C407.2,80.5,353.6,60.1,299.9,60.1z"/>
<path class="st16" d="M335.4,481.7c3.8-1.4,7.2,31.4,10.7,53.1l28.1-5.8l-15.7-48.6L335.4,481.7z"/>
<g>
	<path class="st1" d="M452.8,452.8c4.8,8.7,13.2,26.8,15,35.3c0.7,3.3,0.7,10-1.5,12.3c-15.1,15.1-97.3-42.9-97.3-42.9
		s-4.3-5.4,4.3-20l15.2-22.1l59.3,12.6C447.9,427.9,448,444,452.8,452.8z"/>
	<g>
		<path class="st11" d="M450.8,495c-6.9-2.3-61.8-32.9-81.6-48.8c-2.7,8.1-0.2,11.3-0.2,11.3s82.1,58,97.3,42.9
			c1.2-1.2,1.8-3.8,1.9-6.3C464.5,497.6,457.7,497.3,450.8,495z"/>
		<path class="st1" d="M468.3,494L468.3,494C468.2,494,468.2,494,468.3,494C468.2,494,468.2,494,468.3,494z"/>
	</g>
</g>
<g>
	<path class="st11" d="M429.8,447.2c-0.5,0-1-0.4-1-0.9c0-0.6,0.4-1,0.9-1.1l20-1.7c0.6,0,1,0.4,1.1,0.9c0,0.6-0.4,1-0.9,1.1
		L429.8,447.2C429.9,447.2,429.8,447.2,429.8,447.2z"/>
	<path class="st11" d="M436.1,464.6c-0.5,0-1-0.4-1-0.9c0-0.6,0.4-1,0.9-1.1l20-1.7c0.6,0,1,0.4,1.1,0.9c0,0.6-0.4,1-0.9,1.1
		L436.1,464.6C436.2,464.6,436.1,464.6,436.1,464.6z"/>
	<path class="st11" d="M432.8,456.2c-0.5,0-1-0.4-1-0.9c0-0.6,0.4-1,0.9-1.1l20-1.7c0.6,0,1,0.4,1.1,0.9c0,0.6-0.4,1-0.9,1.1
		L432.8,456.2C432.8,456.2,432.8,456.2,432.8,456.2z"/>
</g>
<path class="st17" d="M453.6,437.4c0,0-22.6-175.7-39.4-212.1c-17.2-37.1-57.9-47.8-90.5-6.6c-23.6,29.7-93.4,150.2-93.4,150.2
	l-4.1-4.8c0,0-57,16.8-75.6,51.9c-1.3,2.5,20.7,19.4,27,23.8c20.6,14.5,42.3,24.2,50.9,26.8c41.2,12.7,43.6-4.7,62-31
	c33.4-48.1,57.7-113.1,61.9-118.5c0,0,9.4,107.4,15.2,127.5L453.6,437.4z"/>
<path class="st16" d="M364,283.3c0,0-12.2,28.1-11.7,33.8s13.3,131.6,13.3,131.6l67.2-9.5L364,283.3z"/>
<path class="st9" d="M270.1,359.4l24.5-19.8c0,0,3.9-7.1,3.1-9.2c-1.9-5.4-8.2-1.4-11-0.9c-0.6,0.1-31.9,4.7-46.5,9.9
	c-3.6,1.3,5.2,10.5,17.2,12.9C266.9,354.2,270.1,359.4,270.1,359.4z"/>
<path class="st17" d="M396.4,409.5c-40.3-10.5-113.9-22.2-164.9-24.2c-13.5-0.5-24.7-5.1-34-4.2l-44.7,41.3c0,0,15.5,24.9,66.3,44.5
	c37,14.3,104.8,15.4,104.8,15.4l0,0c4.8,0.1,9.8,0.2,15,0.2c14.1,0,75.3,202.1,75.3,202.1l93.4-15.7
	C460.6,537.4,442.5,421.5,396.4,409.5z"/>
<path class="st18" d="M245.7,344.2c0,0-19.3-53.9-26.2-83.7c-4.3-18.5-10.7-60.7-64.6-69.6c-63.3-10.5-79.1,22.8-87.4,47.8
	c-4.7,14.1,30.8,117.2,62,162.7c14.4,21.1,21,26.7,21,26.7s63.4-39.7,80.6-59.7C240.3,357.6,245.7,344.2,245.7,344.2z"/>
<g>
	<g>
		<path class="st19" d="M213.3,141.8c0,0-1.1,2,1.4-4.7c2.5-6.7,10-20-10.5-28.3c-13-5.2-23.8-5.7-31.4-4.6
			c-17.3,2.4-19.1,13.7-20,21.1c-2.8,24.1-0.2,26.6,1.7,39.6c1.4,9.5,8.8-12.2,7.9-17.4C161.6,142.3,213.3,141.8,213.3,141.8z"/>
		<path class="st9" d="M162.1,147.7l-27.9,46.4c-2.3,3,31.2,35.5,35.2,27.7c1.2-2.4,2.6-6.2,3.4-7.4l23.5-40.6
			C196.2,173.7,181.3,137,162.1,147.7z"/>
		<g class="st15">
			<g>
				<path class="st20" d="M172.7,152.5l-3.5,3.4c-1.1,5.5-8.8,31,14.5,39.6c3.1-5.3,8.4-14.9,8.4-14.9S190.3,141.2,172.7,152.5z"/>
			</g>
		</g>
		<path class="st9" d="M215.8,125.8c0,0,1.7,31.8-12,55.1c-9.3,15.9-34.5,5.6-43.4-13c-2.6-5.4-1.1-13.2-0.6-16.3
			c-2-4.8-1.5-15.1,1-24.4c2.2-8.2,11.3-9.8,15.9-13C187.2,106.9,215.7,117,215.8,125.8z"/>
		<path class="st19" d="M167.1,139.6c0,0,5.7,0.9,7.2-2.1c3.2-6.3,2.2-20.1,11.6-19.6c10.9,0.6,15.8,3,19.7,3.5c4.2,0.5,8,0,9.3,1.6
			c0.2,0.2,0.5,1,0.9,1.5c0.4,0.7-1.7-6.3-5.3-8.7c-5.2-3.4-15.6-7.7-15.6-7.7l-28.4,4.1c0,0-8.5,14.2-11.2,19.9
			S162.9,140.2,167.1,139.6z"/>
		<path class="st10" d="M198.9,167c-0.7,0-1.2-0.1-1.3-0.1c-0.5-0.1-0.9-0.6-0.8-1.2c0.1-0.5,0.6-0.9,1.2-0.8
			c0.6,0.1,2.2,0.2,3.1-0.5c0.4-0.3,0.5-0.6,0.6-1.2c0.3-3-0.6-12.8-0.6-12.9c-0.1-0.5,0.4-1,0.9-1.1c0.6-0.1,1,0.4,1.1,0.9
			c0,0.4,1,10.1,0.6,13.3c-0.1,1.1-0.6,2-1.4,2.6C201.1,166.8,199.8,167,198.9,167z"/>
		<path class="st9" d="M170.1,139.9c0,0-8.3-13-16.4-5.9c-8.2,7.2-2.6,19.1,6.5,21.6C165.6,157.1,170.1,139.9,170.1,139.9z"/>
		<path class="st10" d="M158.2,146c-0.4,0-0.7-0.2-0.9-0.6c-1.7-3.4-0.8-4.9,0.2-5.6c2.1-1.3,6.5,0.6,8.1,2.9
			c0.3,0.4,0.2,1.1-0.2,1.4c-0.4,0.3-1.1,0.2-1.4-0.2c-1.2-1.6-4.5-2.9-5.4-2.3c-0.4,0.2-0.3,1.2,0.5,2.9c0.2,0.5,0,1.1-0.4,1.3
			C158.5,145.9,158.3,146,158.2,146z"/>
		<path class="st19" d="M189,141.9c-0.8,0-1.4-0.6-1.5-1.4c-0.1-0.8,0.5-1.6,1.4-1.6c3.9-0.3,8.2-0.3,8.4-0.3c0.8,0,1.5,0.7,1.5,1.5
			c0,0.8-0.7,1.5-1.5,1.5c0,0,0,0,0,0c0,0-4.3,0-8.1,0.3C189.1,141.9,189,141.9,189,141.9z"/>
		<path class="st19" d="M214.8,145.6c-0.2,0-0.4,0-0.5-0.1l-5.5-2c-0.8-0.3-1.2-1.2-0.9-1.9c0.3-0.8,1.2-1.2,1.9-0.9l5.5,2
			c0.8,0.3,1.2,1.2,0.9,1.9C216,145.2,215.4,145.6,214.8,145.6z"/>
		<ellipse transform="matrix(0.9751 0.2218 -0.2218 0.9751 37.8308 -38.8669)" class="st21" cx="192" cy="149" rx="1.8" ry="2"/>
		<ellipse transform="matrix(0.9751 0.2218 -0.2218 0.9751 38.702 -42.7051)" class="st21" cx="209.5" cy="151" rx="1.8" ry="2"/>
		<path class="st22" d="M191.5,172.8c-0.1,0-0.2,0-0.3,0c-3.8-1.1-4-6-4.1-6.2c0-0.6,0.4-1,0.9-1c0.5,0,1,0.4,1,0.9l0,0
			c0,0,0.2,3.7,2.6,4.4c0.5,0.2,0.8,0.7,0.7,1.2C192.3,172.5,191.9,172.8,191.5,172.8z"/>
	</g>
</g>
<g>
	<path class="st2" d="M338.5,287.6l-19.1-27.7c-1.4-2-3.7-3.2-6.1-3.2h-58.8c-1.3,0-2.5,0.3-3.6,0.9l-21.1,11.6l65.5,68.5l21.2-11.6
		l0,0c1.1-0.5,2.1-1.4,2.8-2.4l19.1-27.7C340.3,293.4,340.3,290.1,338.5,287.6z"/>
	<path class="st1" d="M292.4,338.3h-58.8c-4.1,0-7.4-3.3-7.4-7.4v-55.3c0-4.1,3.3-7.4,7.4-7.4h58.8c2.4,0,4.7,1.2,6.1,3.2l19.1,27.7
		c1.8,2.5,1.8,5.9,0,8.4l-19.1,27.7C297.1,337.1,294.8,338.3,292.4,338.3z"/>
	<path class="st5" d="M300.5,309.8c-3.6,0-6.6-3-6.6-6.6s3-6.6,6.6-6.6s6.6,3,6.6,6.6S304.1,309.8,300.5,309.8z M300.5,298.7
		c-2.5,0-4.6,2.1-4.6,4.6s2.1,4.6,4.6,4.6s4.6-2.1,4.6-4.6S303,298.7,300.5,298.7z"/>
</g>
<path class="st15" d="M75.3,247.8c-15.7,71.5-2.9,134,1.8,146.7c9,24,33,40,63.7,31.4c28.8-8.1,71.3-36.4,100.1-50.5l-117.1-7.2
	L75.3,247.8z"/>
<path class="st9" d="M93.4,203.3c0,0-14.2,5.1-19.5,26.7c-17.4,70.7-4.1,145.2,16.5,166.6c13.7,14.2,41.4,25.6,91.1,6.1
	c49.7-19.5,70-34.3,88.7-43.3l16.2-14.5l4.7-3.8c-4.9-2.5-17.4-0.7-12.7-5.7c0.5-0.6,3-3.2,3.7-3.8c3.8-2.9,11.9-10.5,0.6-9.3
	c-4.4,0.8-9.6,5-13.9,5.8l-14.1,5.9c-11.4,2.6-13.9,0.2-27.8,5.2c-7.4,3.8-87.6,21.1-94.9,10c-7.3-11-7.4-79-6.7-99.5
	C126,228,128.4,194.1,93.4,203.3z"/>
<polygon class="st4" points="63.5,310.3 64.3,321.3 126,313.6 125.6,311.5 "/>
<path class="st18" d="M131.7,312.7c0,0,1-57.2-1.2-79.9c-3-30.7-33.9-52.3-55-13.6c-17.4,31.9-19,91.1-19,91.1L131.7,312.7z"/>
<path class="st23" d="M132.7,313.7l-75.3-2.5c-0.6,0-1-0.5-1-1c0-0.6,0.5-1,1-1l73.3,2.4c0.1-7.8,0.8-58-1.2-78.7
	c-1.2-12.1-6.9-23.3-15.1-29.2c-5.2-3.8-10.9-5.1-16.5-3.9c-0.5,0.1-1.1-0.2-1.2-0.8c-0.1-0.5,0.2-1.1,0.8-1.2
	c6.2-1.4,12.5,0.1,18.2,4.2c8.6,6.2,14.6,17.9,15.9,30.6c2.2,22.5,1.3,79.4,1.2,80L132.7,313.7z"/>
<path class="st24" d="M409.4,416.7c-0.2,0-0.4-0.1-0.6-0.2c-15.6-12.4-81.3-18.5-82-18.6c-5.4-0.7-52.2-7.3-56-9.9
	c-4.2-2.9-17.2-9.6-17.3-9.6c-0.5-0.3-0.7-0.9-0.4-1.3c0.3-0.5,0.9-0.7,1.3-0.4c0.5,0.3,13.2,6.8,17.5,9.8
	c2.6,1.8,34.4,6.7,55.1,9.5c2.7,0.2,67,6.2,83,19c0.4,0.3,0.5,1,0.2,1.4C410,416.6,409.7,416.7,409.4,416.7z"/>
<path class="st10" d="M114.7,365.8c-0.2,0-0.3,0-0.5-0.1c-0.5-0.3-0.7-0.9-0.4-1.4c6.3-11.5,17.4-13.3,17.9-13.4
	c0.5-0.1,1.1,0.3,1.1,0.8c0.1,0.5-0.3,1.1-0.8,1.1c-0.1,0-10.7,1.8-16.5,12.4C115.4,365.6,115.1,365.8,114.7,365.8z"/>
<path class="st10" d="M235.9,343C235.8,343,235.8,343,235.9,343c-0.6,0-1.1-0.5-1-1.1c0.1-1.3,4.8-6.4,13.7-6.1c0.6,0,1,0.5,1,1
	c0,0.6-0.5,1-1,1c-7.2-0.3-10.9,3.3-11.6,4.3C236.8,342.6,236.4,343,235.9,343z"/>
<path class="st24" d="M352.7,315.6C352.7,315.6,352.6,315.6,352.7,315.6c-0.6-0.1-1-0.5-1-1.1c0-0.5,4.3-48.1,11.5-73.7
	c0.1-0.5,0.7-0.8,1.2-0.7c0.5,0.1,0.8,0.7,0.7,1.2c-7.1,25.4-11.4,72.9-11.4,73.4C353.6,315.2,353.2,315.6,352.7,315.6z"/>
<path class="st24" d="M352.9,313c-0.1,0-0.2,0-0.3,0c-0.5-0.2-0.8-0.7-0.6-1.3c0.3-1.1,8.5-26.4,15.1-36.1c0.3-0.5,0.9-0.6,1.4-0.3
	c0.5,0.3,0.6,0.9,0.3,1.4c-6.4,9.5-14.8,35.4-14.9,35.6C353.7,312.7,353.4,313,352.9,313z"/>
<path class="st24" d="M348,494.5c-0.4,0-0.8-0.2-0.9-0.6c-2.5-6.3-16.8-24.2-16.9-24.3c-0.3-0.4-0.3-1.1,0.2-1.4
	c0.4-0.3,1.1-0.3,1.4,0.2c0.6,0.7,14.7,18.3,17.2,24.9c0.2,0.5-0.1,1.1-0.6,1.3C348.2,494.5,348.1,494.5,348,494.5z"/>
<path class="st24" d="M436,671.4c-0.4,0-0.8-0.3-0.9-0.7l-61.9-188.1l0-0.1c-0.1-0.3-6.7-29.2-58.3-29.2c-0.5,0-1,0-1.5,0
	c-92,1-109.3-12.6-118.6-19.9c-1.2-1-2.3-1.8-3.4-2.5c-8.6-5.2-13.6-18.5-13.8-19.1c-0.2-0.5,0.1-1.1,0.6-1.3
	c0.5-0.2,1.1,0.1,1.3,0.6c0,0.1,5,13.2,12.9,18c1.2,0.7,2.3,1.6,3.6,2.6c9.1,7.1,26,20.4,117.3,19.4c28.5-0.3,43.8,8,51.6,15
	c8.2,7.4,10.1,14.9,10.2,15.7l61.9,188c0.2,0.5-0.1,1.1-0.6,1.3C436.3,671.4,436.1,671.4,436,671.4z"/>
<path class="st24" d="M203.1,438.6c-0.5,0-1-0.4-1-1c-0.1-7.9,4.1-16.6,7.4-23.6c1.9-4,3.6-7.5,3.6-9.2c0-3.7-5.1-9.2-7-10.9
	c-0.4-0.4-0.4-1-0.1-1.4s1-0.4,1.4-0.1c0.3,0.3,7.7,7,7.7,12.4c0,2.2-1.7,5.6-3.8,10c-3.3,6.8-7.3,15.3-7.2,22.7
	C204.2,438.1,203.7,438.5,203.1,438.6C203.2,438.6,203.1,438.6,203.1,438.6z"/>
<path class="st24" d="M415.5,671.4c-0.5,0-0.9-0.3-1-0.8c-0.1-0.5,0.3-1.1,0.8-1.2l79.7-13.6c0.5-0.1,1.1,0.3,1.2,0.8
	c0.1,0.5-0.3,1.1-0.8,1.2l-79.7,13.6C415.6,671.4,415.5,671.4,415.5,671.4z"/>
<path class="st5" d="M772,147.2c-0.6,0-1-0.4-1-1v-36.5h-36.5c-0.6,0-1-0.4-1-1s0.4-1,1-1H772c0.6,0,1,0.4,1,1v37.5
	C773,146.7,772.6,147.2,772,147.2z"/>
<path class="st5" d="M772,273.6h-37.5c-0.6,0-1-0.4-1-1s0.4-1,1-1H771v-36.5c0-0.6,0.4-1,1-1s1,0.4,1,1v37.5
	C773,273.1,772.6,273.6,772,273.6z"/>
<g>
	<path class="st1" d="M227.8,656H19.6c-2.8,0-5-2.2-5-5s2.2-5,5-5h208.2c2.8,0,5,2.2,5,5S230.5,656,227.8,656z"/>
	<path class="st5" d="M220.5,677.9H26.9C12.1,677.9,0,665.8,0,651s12.1-26.9,26.9-26.9h193.6c14.8,0,26.9,12.1,26.9,26.9
		S235.3,677.9,220.5,677.9z M26.9,626.1C13.2,626.1,2,637.2,2,651s11.2,24.9,24.9,24.9h193.6c13.7,0,24.9-11.2,24.9-24.9
		s-11.2-24.9-24.9-24.9H26.9z"/>
</g>
</svg>
