<svg width="368" height="298" viewBox="0 0 368 298" fill="none" xmlns="http://www.w3.org/2000/svg">
<path d="M286.206 86.1656C276.523 54.3463 257.342 23.8777 231.342 2.74178C230.856 2.35229 230.273 2.10478 229.655 2.02666C229.038 1.94855 228.411 2.04288 227.844 2.29921L185.96 21.2261C148.549 14.2988 111.134 12.7979 75.0737 26.0868C74.4594 26.3146 73.9254 26.7174 73.5376 27.2454C73.1498 27.7734 72.9252 28.4035 72.8916 29.0578C72.3644 39.2986 70.1977 81.9323 70.1977 81.9323C45.2479 108.264 25.7437 141.399 21.0254 177.333C20.9502 177.942 21.0427 178.561 21.2929 179.121C21.5431 179.682 21.9417 180.164 22.4455 180.515L67.3729 211.827C77.0557 243.646 96.2366 274.115 122.237 295.251C122.721 295.641 123.304 295.889 123.922 295.967C124.539 296.045 125.165 295.95 125.731 295.693L167.603 276.766C205.01 283.693 242.414 285.179 278.49 271.894C279.104 271.664 279.638 271.26 280.026 270.73C280.413 270.201 280.638 269.57 280.672 268.915L283.366 216.052C308.316 189.713 327.82 156.578 332.534 120.644C332.611 120.036 332.519 119.418 332.27 118.857C332.02 118.297 331.622 117.816 331.118 117.465L286.206 86.1656Z" fill="#45E0A8"/>
<path d="M103.022 252.715L95.0399 258.361L94.5645 266.217C94.5645 266.217 118.136 297.179 124.367 295.967C130.598 294.755 166.726 276.806 167.731 276.806C168.735 276.806 220.171 285.882 241.852 280.336C254.458 279.327 271.91 273.781 271.91 273.781L271.582 267.824L103.022 252.715Z" fill="white"/>
<path d="M94.4546 265.903L108.748 82.068C108.889 80.2562 109.709 78.5644 111.043 77.3302C112.377 76.0961 114.127 75.4105 115.945 75.4102H250.673C252.495 75.4101 254.25 76.0998 255.585 77.3405C256.92 78.5813 257.736 80.2812 257.869 82.0988L272.047 274.116" fill="white"/>
<path d="M94.4546 265.903L108.748 82.068C108.889 80.2562 109.709 78.5644 111.043 77.3302C112.377 76.0961 114.127 75.4105 115.945 75.4102H250.673C252.495 75.4101 254.25 76.0998 255.585 77.3405C256.92 78.5813 257.736 80.2812 257.869 82.0988L272.047 274.116" stroke="black" stroke-width="1.2" stroke-linecap="round" stroke-linejoin="round"/>
<path d="M286.206 86.1656C276.523 54.3463 257.342 23.8777 231.342 2.74178C230.856 2.35229 230.273 2.10478 229.655 2.02666C229.038 1.94855 228.411 2.04288 227.844 2.29921L185.96 21.2261C148.549 14.2988 111.134 12.7979 75.0737 26.0868C74.4594 26.3146 73.9254 26.7174 73.5376 27.2454C73.1498 27.7734 72.9252 28.4035 72.8916 29.0578C72.3644 39.2986 70.1977 81.9323 70.1977 81.9323C45.2479 108.264 25.7437 141.399 21.0254 177.333C20.9502 177.942 21.0427 178.561 21.2929 179.121C21.5431 179.682 21.9417 180.164 22.4455 180.515L67.3729 211.827C77.0557 243.646 96.2366 274.115 122.237 295.251C122.721 295.641 123.304 295.889 123.922 295.967C124.539 296.045 125.165 295.95 125.731 295.693L167.603 276.766C205.01 283.693 242.414 285.179 278.49 271.894C279.104 271.664 279.638 271.26 280.026 270.73C280.413 270.201 280.638 269.57 280.672 268.915L283.366 216.052C308.316 189.713 327.82 156.578 332.534 120.644C332.611 120.036 332.519 119.418 332.27 118.857C332.02 118.297 331.622 117.816 331.118 117.465L286.206 86.1656Z" stroke="white" stroke-width="2" stroke-miterlimit="10" stroke-linecap="round"/>
<path d="M255.711 227.122H107.494L116.345 95.711C116.473 93.8041 117.321 92.0172 118.718 90.7123C120.114 89.4075 121.954 88.6822 123.865 88.6836H242.599C244.54 88.6828 246.407 89.4316 247.81 90.774C249.212 92.1163 250.042 93.9484 250.127 95.888L255.711 227.122Z" fill="black" stroke="black" stroke-width="1.2" stroke-linecap="round" stroke-linejoin="round"/>
<path d="M256.738 251.301C256.782 252.317 256.62 253.331 256.262 254.283C255.903 255.235 255.356 256.104 254.652 256.838C253.949 257.572 253.104 258.157 252.169 258.556C251.234 258.955 250.227 259.16 249.21 259.16H113.401C112.368 259.159 111.347 258.947 110.4 258.536C109.453 258.125 108.6 257.524 107.895 256.77C107.189 256.016 106.646 255.125 106.299 254.152C105.952 253.18 105.808 252.147 105.877 251.116L107.493 227.121H255.71L256.738 251.301Z" fill="white" stroke="black" stroke-width="1.2" stroke-linecap="round" stroke-linejoin="round"/>
<path d="M244.908 233.164H198.51C196.466 233.164 194.808 234.822 194.808 236.866V249.008C194.808 251.053 196.466 252.711 198.51 252.711H244.908C246.953 252.711 248.61 251.053 248.61 249.008V236.866C248.61 234.822 246.953 233.164 244.908 233.164Z" fill="#45E0A8" stroke="black" stroke-width="1.2" stroke-linecap="round" stroke-linejoin="round"/>
<path d="M155.411 82.6211H201.963" stroke="black" stroke-width="1.2" stroke-linecap="round" stroke-linejoin="round"/>
<path d="M165.186 100.77C165.186 100.77 161.257 114.828 162.769 126.17C164.282 137.511 168.604 144.623 168.604 144.623L186.949 142.333" fill="black"/>
<path d="M165.186 100.77C165.186 100.77 161.257 114.828 162.769 126.17C164.282 137.511 168.604 144.623 168.604 144.623L186.949 142.333" stroke="#45E0A8" stroke-width="1.2" stroke-linecap="round" stroke-linejoin="round"/>
<path d="M208.813 84.3509C209.759 84.3509 210.525 83.5842 210.525 82.6384C210.525 81.6925 209.759 80.9258 208.813 80.9258C207.867 80.9258 207.1 81.6925 207.1 82.6384C207.1 83.5842 207.867 84.3509 208.813 84.3509Z" fill="black"/>
<path d="M220.097 189.021C220.097 189.021 227.617 198.208 230.576 208.164C233.901 219.347 233.347 227.937 233.347 227.937L251.131 227.106C251.131 227.106 252.439 212.482 249.318 196.576C246.197 180.67 241.46 173.504 241.46 173.504C241.46 173.504 232.916 172.823 226.266 179.473C219.615 186.123 220.097 189.021 220.097 189.021Z" fill="#45E0A8" stroke="black" stroke-width="1.2" stroke-linecap="round" stroke-linejoin="round"/>
<path d="M171.532 101.963C171.532 101.963 166.495 104.937 163.474 100.119C162.605 98.7717 162.143 97.2024 162.143 95.5991C162.143 93.9957 162.605 92.4264 163.474 91.079C163.474 91.079 164.482 95.5086 171.532 91.079C178.583 86.6494 185.033 83.2165 195.716 91.079C206.4 98.9415 202.163 109.332 212.038 117.841C221.913 126.35 236.418 117.841 236.418 117.841C236.418 117.841 238.635 124.13 236.418 128.563C234.945 131.387 232.964 133.915 230.576 136.022C232.009 137.346 233.736 138.313 235.614 138.843C238.635 139.647 240.232 138.843 240.232 138.843C240.232 138.843 241.845 144.08 234.59 149.926C227.336 155.772 211.014 159.598 196.705 153.752C182.397 147.906 171.532 101.963 171.532 101.963Z" fill="black" stroke="#45E0A8" stroke-width="1.2" stroke-linecap="round" stroke-linejoin="round"/>
<path d="M145.94 185.812C145.6 183.291 144.705 180.876 143.321 178.742C141.936 176.608 140.095 174.807 137.931 173.47C131.492 169.421 127.925 169.891 127.925 169.891C127.925 169.891 134.583 153.808 157.989 140.915C180.407 128.6 203.575 131.806 219.492 144.19C235.602 156.725 241.459 173.52 241.459 173.52C241.459 173.52 237.611 173.116 228.559 179.489C225.065 182.006 222.173 185.267 220.092 189.037L215.69 182.371L215.043 227.122H158.855C158.855 227.122 155.426 205.57 154.422 194.075C153.417 182.579 153.614 178.153 153.614 178.153L145.94 185.812Z" fill="white"/>
<path d="M215.64 186.02C215.64 186.02 212.842 207.775 210.021 215.838C207.2 223.9 203.975 227.121 203.975 227.121H215.043L215.64 186.02Z" fill="#45E0A8"/>
<path d="M233.347 176.441C233.347 176.441 229.587 161.374 222.186 151.153C214.786 140.931 207.916 137.375 207.916 137.375C207.916 137.375 223.475 144.364 229.852 153.75C234.095 160.11 237.966 166.711 241.444 173.52L233.347 176.441Z" fill="#45E0A8"/>
<path d="M145.94 185.812C145.6 183.291 144.705 180.876 143.321 178.742C141.936 176.608 140.095 174.807 137.931 173.47C131.492 169.421 127.925 169.891 127.925 169.891C127.925 169.891 134.583 153.808 157.989 140.915C180.407 128.6 203.575 131.806 219.492 144.19C235.602 156.725 241.459 173.52 241.459 173.52C241.459 173.52 237.611 173.116 228.559 179.489C225.065 182.006 222.173 185.267 220.092 189.037L215.69 182.371L215.043 227.122H158.855C158.855 227.122 155.426 205.57 154.422 194.075C153.417 182.579 153.614 178.153 153.614 178.153L145.94 185.812Z" stroke="black" stroke-width="1.2" stroke-linecap="round" stroke-linejoin="round"/>
<path d="M169.466 106.376C169.466 106.376 168.604 104.044 166.699 105.156C164.389 106.507 166.337 111.433 168.861 112.603" fill="#45E0A8"/>
<path d="M169.466 106.376C169.466 106.376 168.604 104.044 166.699 105.156C164.389 106.507 166.337 111.433 168.861 112.603" stroke="black" stroke-width="1.2" stroke-linecap="round" stroke-linejoin="round"/>
<path d="M194.354 106.515C194.354 106.515 197.137 102.182 199.357 104.852C201.886 107.912 195.124 111.803 195.124 111.803C195.124 111.803 193.761 114.828 193.761 120.116C193.761 125.403 195.124 133.585 193.761 137.195C192.399 140.805 190.74 144.892 182.578 144.6C174.415 144.307 174.111 133.266 173.511 128.436C172.91 123.606 172.741 121.936 171.698 120.123C170.19 117.712 169.208 115.01 168.818 112.193C168.427 109.376 168.636 106.509 169.431 103.779C171.848 95.3389 177.752 91.2557 183.263 91.1056C188.774 90.9555 192.249 95.0349 193.611 98.36C194.974 101.685 194.354 106.515 194.354 106.515Z" fill="#45E0A8"/>
<path d="M182.331 91.1641C178.198 93.8195 172.96 97.3216 171.94 106.212C171.225 112.469 170.89 118.404 173.16 121.54C175.431 124.677 165.806 118.846 169.435 103.772C171.94 92.7605 182.331 91.1641 182.331 91.1641Z" fill="#FEFDFD"/>
<path d="M194.354 106.515C194.354 106.515 197.137 102.182 199.357 104.852C201.886 107.912 195.124 111.803 195.124 111.803C195.124 111.803 193.761 114.828 193.761 120.116C193.761 125.403 195.124 133.585 193.761 137.195C192.399 140.805 190.74 144.892 182.578 144.6C174.415 144.307 174.111 133.266 173.511 128.436C172.91 123.606 172.741 121.936 171.698 120.123C170.19 117.712 169.208 115.01 168.818 112.193C168.427 109.376 168.636 106.509 169.431 103.779C171.848 95.3389 177.752 91.2557 183.263 91.1056C188.774 90.9555 192.249 95.0349 193.611 98.36C194.974 101.685 194.354 106.515 194.354 106.515Z" stroke="black" stroke-width="1.2" stroke-linecap="round" stroke-linejoin="round"/>
<path d="M178.483 103.795C178.483 103.795 178.317 100.57 180.022 100.166C181.727 99.7618 182.331 103.191 182.331 103.191" fill="#45E0A8"/>
<path d="M178.483 103.795C178.483 103.795 178.317 100.57 180.022 100.166C181.727 99.7618 182.331 103.191 182.331 103.191" stroke="black" stroke-width="1.2" stroke-linecap="round" stroke-linejoin="round"/>
<path d="M180.399 113.916C181.29 113.916 182.012 112.72 182.012 111.245C182.012 109.77 181.29 108.574 180.399 108.574C179.509 108.574 178.787 109.77 178.787 111.245C178.787 112.72 179.509 113.916 180.399 113.916Z" fill="black"/>
<path d="M153.194 167.672C153.194 167.672 153.514 172.879 153.598 178.151" stroke="black" stroke-width="1.2" stroke-linecap="round" stroke-linejoin="round"/>
<path d="M215.663 184.402C215.663 184.402 215.867 176.013 215.663 174.781" stroke="black" stroke-width="1.2" stroke-linecap="round" stroke-linejoin="round"/>
<path d="M145.94 185.812C145.94 185.812 138.339 194.444 133.563 208.064C129.565 219.475 129.518 228.63 129.518 228.63L109.268 227.122C110.236 216.069 112.543 205.175 116.137 194.679C121.983 177.953 127.925 169.891 127.925 169.891C132.281 170.235 136.416 171.947 139.74 174.782C145.49 179.754 145.94 185.812 145.94 185.812Z" fill="#45E0A8" stroke="black" stroke-width="1.2" stroke-linecap="round" stroke-linejoin="round"/>
<path d="M233.347 222.914C233.347 222.914 227.062 226.428 225.35 229.249C223.637 232.07 226.166 233.663 228.987 232.712C230.512 232.234 231.976 231.576 233.347 230.753" fill="#45E0A8"/>
<path d="M231.084 224.293C228.852 226.363 227.755 229.123 227.716 230.37C227.678 231.617 228.644 232.821 228.644 232.821C228.644 232.821 224.076 233.41 224.818 230.624C225.561 227.837 231.084 224.293 231.084 224.293Z" fill="#FEFDFD"/>
<path d="M233.347 222.914C233.347 222.914 227.062 226.428 225.35 229.249C223.637 232.07 226.166 233.663 228.987 232.712C230.512 232.234 231.976 231.576 233.347 230.753" stroke="black" stroke-width="1.2" stroke-linecap="round" stroke-linejoin="round"/>
<path d="M237.93 226.517C237.93 226.517 235.621 239.514 233.801 240.822C232.697 241.592 230.272 240.622 230.272 234.88C230.272 229.138 231.681 224.589 233.647 222.565C235.614 220.541 237.226 222.357 238.235 222.565C239.243 222.773 240.047 221.584 242.264 221.626C244.481 221.668 245.689 222.78 246.112 222.573C246.536 222.365 248.16 221.857 249.538 222.419C251.196 223.1 251.462 224.081 251.954 224.285C252.447 224.489 253.425 225.594 253.829 227.106C254.233 228.619 254.133 234.361 252.409 238.39C251.431 240.676 249.688 242.923 248.075 241.815C246.463 240.707 249.638 229.927 249.638 229.927C249.638 229.927 246.817 241.834 244.3 242.338C241.606 242.877 241.991 238.69 242.587 235.569C243.184 232.448 244.511 227.306 244.511 227.306C244.511 227.306 241.944 242.385 238.061 242.015C234.305 241.68 237.93 226.517 237.93 226.517Z" fill="#45E0A8"/>
<path d="M238.235 222.579C235.691 223.264 234.255 224.55 233.347 228.933C232.439 233.317 231.758 239.174 232.366 240.891C232.974 242.607 227.748 238.012 230.884 228.714C234.021 219.416 234.294 221.825 235.745 221.637C236.203 221.602 236.664 221.669 237.094 221.831C237.525 221.994 237.914 222.25 238.235 222.579V222.579Z" fill="#FEFDFD"/>
<path d="M237.704 227.746C237.704 227.746 237.319 235.828 238.235 237.948C239.151 240.069 240.417 240.308 240.417 240.308C240.417 240.308 238.781 243.002 237.627 242.182C236.472 241.362 236.045 239.465 236.43 235.743C236.815 232.022 237.704 227.746 237.704 227.746Z" fill="#FEFDFD"/>
<path d="M237.93 226.517C237.93 226.517 235.621 239.514 233.801 240.822C232.697 241.592 230.272 240.622 230.272 234.88C230.272 229.138 231.681 224.589 233.647 222.565C235.614 220.541 237.226 222.357 238.235 222.565C239.243 222.773 240.047 221.584 242.264 221.626C244.481 221.668 245.689 222.78 246.112 222.573C246.536 222.365 248.16 221.857 249.538 222.419C251.196 223.1 251.462 224.081 251.954 224.285C252.447 224.489 253.425 225.594 253.829 227.106C254.233 228.619 254.133 234.361 252.409 238.39C251.431 240.676 249.688 242.923 248.075 241.815C246.463 240.707 249.638 229.927 249.638 229.927C249.638 229.927 246.817 241.834 244.3 242.338C241.606 242.877 241.991 238.69 242.587 235.569C243.184 232.448 244.511 227.306 244.511 227.306C244.511 227.306 241.944 242.385 238.061 242.015C234.305 241.68 237.93 226.517 237.93 226.517Z" stroke="black" stroke-width="1.2" stroke-linecap="round" stroke-linejoin="round"/>
<path d="M127.102 223.797C131.535 224.601 135.033 224.928 135.865 226.414C136.942 228.338 133.652 230.366 130.427 229.801" fill="#45E0A8"/>
<path d="M127.102 223.797C131.535 224.601 135.033 224.928 135.865 226.414C136.942 228.338 133.652 230.366 130.427 229.801" stroke="black" stroke-width="1.2" stroke-linecap="round" stroke-linejoin="round"/>
<path d="M112.893 230.747C112.893 230.747 113.497 236.289 113.901 239.598C114.305 242.908 114.286 244.132 112.389 244.217C110.492 244.301 106.705 238.829 107.201 231.432C107.698 224.035 111.281 223.866 112.204 224.166C113.128 224.466 114.413 223.427 116.942 222.757C120.163 221.899 122.38 224.166 122.984 223.562C123.588 222.957 125.847 221.884 127.217 222.611C129.384 223.766 130.45 226.721 130.946 230.866C131.604 236.385 131.07 241.765 129.157 242.277C126.798 242.939 125.374 234.776 124.989 231.855C124.604 228.934 125.27 240.549 124.081 243.139C123.022 245.448 120.232 245.66 119.751 241.426C119.27 237.193 119.047 230.847 119.047 230.847C119.047 230.847 119.655 241.426 119.047 243.743C118.439 246.06 116.249 245.51 115.495 244.382C113.771 241.804 112.893 230.747 112.893 230.747Z" fill="#45E0A8"/>
<path d="M112.585 224.249C112.585 224.249 109.121 225.457 109.267 232.558C109.414 239.658 110.922 243.541 110.922 243.541C110.922 243.541 107.324 240.493 107.162 233.15C107.001 225.808 110.426 223.452 111.08 223.779C111.559 224.001 112.065 224.159 112.585 224.249Z" fill="#FEFDFD"/>
<path d="M112.893 230.747C112.893 230.747 113.497 236.289 113.901 239.598C114.305 242.908 114.286 244.132 112.389 244.217C110.492 244.301 106.705 238.829 107.201 231.432C107.698 224.035 111.281 223.866 112.204 224.166C113.128 224.466 114.413 223.427 116.942 222.757C120.163 221.899 122.38 224.166 122.984 223.562C123.588 222.957 125.847 221.884 127.217 222.611C129.384 223.766 130.45 226.721 130.946 230.866C131.604 236.385 131.07 241.765 129.157 242.277C126.798 242.939 125.374 234.776 124.989 231.855C124.604 228.934 125.27 240.549 124.081 243.139C123.022 245.448 120.232 245.66 119.751 241.426C119.27 237.193 119.047 230.847 119.047 230.847C119.047 230.847 119.655 241.426 119.047 243.743C118.439 246.06 116.249 245.51 115.495 244.382C113.771 241.804 112.893 230.747 112.893 230.747Z" stroke="black" stroke-width="1.2" stroke-linecap="round" stroke-linejoin="round"/>
<path d="M312.472 147.562L263.704 133.134C260.24 132.111 255.687 127.627 256.988 121.539L273.729 76.2614C273.972 75.4399 274.374 74.6744 274.913 74.0085C275.452 73.3426 276.117 72.7894 276.869 72.3805C277.622 71.9716 278.448 71.7151 279.3 71.6256C280.152 71.536 281.013 71.6152 281.834 71.8587L329.494 82.3651C333.381 83.9969 336.213 89.2077 335.005 94.3916L320.577 143.156C320.082 144.812 318.952 146.205 317.433 147.031C315.915 147.857 314.131 148.048 312.472 147.562Z" fill="black" stroke="black" stroke-width="1.2" stroke-linecap="round" stroke-linejoin="round"/>
<path d="M330.671 82.4224L277.33 66.6424C275.139 65.9942 272.837 67.2449 272.189 69.4359L256.409 122.777C255.761 124.968 257.012 127.27 259.203 127.918L312.544 143.698C314.735 144.346 317.036 143.095 317.684 140.904L333.464 87.5632C334.113 85.3722 332.862 83.0706 330.671 82.4224Z" fill="white" stroke="black" stroke-width="1.2" stroke-linecap="round" stroke-linejoin="round"/>
<path d="M307.546 127.036C304.425 128.522 301.192 128.472 297.925 127.652C291.767 126.113 285.681 124.345 279.667 122.349C277.239 121.544 275.026 120.324 273.321 118.389C271.884 116.763 270.941 114.76 270.604 112.616C270.219 110.307 270.554 108.059 271.089 105.816C271.697 103.249 272.467 100.728 273.171 98.1879C274.16 94.9552 275.038 91.6839 276.138 88.4858C276.908 86.2691 277.847 84.1524 279.479 82.4245C282.211 79.5342 285.609 78.4259 289.527 78.7722C291.612 79.0234 293.668 79.4705 295.669 80.1077C300.545 81.4931 305.445 82.8286 310.247 84.4603C312.71 85.2954 314.993 86.4192 316.79 88.3627C319.13 90.8642 320.073 93.8391 319.911 97.2142C319.803 99.481 319.203 101.659 318.591 103.818C317.198 108.76 315.832 113.709 314.188 118.577C313.535 120.654 312.49 122.586 311.109 124.269C310.099 125.4 308.892 126.337 307.546 127.036ZM277.758 98.134C276.781 101.432 275.726 104.711 275.091 108.102C274.58 110.796 274.991 113.324 276.943 115.414C278.259 116.822 279.975 117.573 281.761 118.177C286.456 119.77 291.236 121.075 296 122.441C297.694 122.966 299.428 123.353 301.184 123.596C303.493 123.861 305.572 123.384 307.38 121.879C308.947 120.544 309.774 118.754 310.421 116.876C312.056 112.093 313.376 107.216 314.754 102.356C315.266 100.539 315.789 98.7113 315.909 96.8101C316.043 94.6204 315.524 92.6268 313.984 91.0374C312.645 89.6327 310.948 88.7706 309.112 88.1472C306.287 87.1928 303.432 86.3538 300.565 85.5417C297.486 84.6643 294.407 83.6752 291.251 83.0364C289.712 82.7246 288.196 82.5168 286.66 82.8555C283.739 83.4982 281.988 85.4725 280.922 88.1395C279.621 91.3761 278.724 94.7666 277.774 98.134H277.758Z" fill="#45E0A8"/>
<path d="M302.747 112.084C301.058 113.491 299.008 114.394 296.83 114.691C294.653 114.988 292.435 114.666 290.432 113.762C288.768 113.056 287.317 111.928 286.222 110.491C284.336 108.095 283.467 105.055 283.801 102.024C283.911 101.108 284.114 100.205 284.409 99.3304C285.175 97.2431 286.524 95.4197 288.296 94.0772C289.442 93.209 290.737 92.5569 292.117 92.1529C294.329 91.5052 296.688 91.5644 298.864 92.3223C300.357 92.8138 301.734 93.605 302.91 94.6474C304.086 95.6897 305.037 96.9613 305.705 98.3842C306.373 99.807 306.743 101.351 306.793 102.922C306.843 104.493 306.571 106.058 305.995 107.52C305.291 109.278 304.178 110.843 302.747 112.084V112.084ZM288.042 101.228C286.68 105.203 289.093 109.637 293.237 110.718C294.415 111.062 295.661 111.1 296.856 110.826C298.052 110.553 299.158 109.977 300.068 109.156C300.829 108.541 301.454 107.777 301.906 106.91C302.357 106.043 302.625 105.093 302.693 104.118C303.078 100.296 300.407 96.8058 296.509 96.0361C294.707 95.7169 292.85 96.0689 291.29 97.0255C289.73 97.9821 288.575 99.477 288.042 101.228Z" fill="#45E0A8"/>
<path d="M312.745 96.0128C312.55 96.6986 312.091 97.279 311.468 97.6267C310.846 97.9744 310.111 98.0611 309.424 97.8678C308.73 97.6658 308.144 97.1966 307.795 96.5633C307.445 95.9299 307.362 95.1839 307.562 94.4888C307.766 93.8014 308.235 93.2232 308.865 92.8815C309.495 92.5397 310.236 92.4624 310.923 92.6666C311.611 92.8707 312.189 93.3396 312.531 93.97C312.872 94.6004 312.95 95.3408 312.745 96.0282V96.0128Z" fill="#45E0A8"/>
<path d="M282.223 84.4551L236.426 103.428C233.178 104.771 227.317 104.002 225.65 100.134L209.121 54.1712C208.476 52.6121 208.477 50.8607 209.123 49.302C209.768 47.7432 211.007 46.5047 212.565 45.8585L255.865 24.9535C259.113 23.6065 264.431 25.6578 266.691 30.3414L285.664 76.1385C285.985 76.9103 286.15 77.738 286.151 78.5739C286.152 79.4099 285.988 80.2378 285.668 81.0103C285.349 81.7828 284.88 82.4847 284.289 83.0758C283.698 83.6669 282.996 84.1356 282.223 84.4551V84.4551Z" fill="black" stroke="#45E0A8" stroke-width="1.2" stroke-linecap="round" stroke-linejoin="round"/>
<path d="M255.985 24.005L206.058 44.6753C203.947 45.5493 202.944 47.9692 203.818 50.0803L224.488 100.007C225.362 102.118 227.782 103.121 229.893 102.247L279.82 81.577C281.931 80.703 282.934 78.2831 282.06 76.172L261.39 26.245C260.516 24.1339 258.096 23.131 255.985 24.005Z" fill="#45E0A8" stroke="black" stroke-width="1.2" stroke-linecap="round" stroke-linejoin="round"/>
<path d="M319.915 206.276L269.969 185.672C264.781 183.894 260.675 181.123 263.561 173.807L283.289 135.21C284.528 132.204 288.399 130.954 291.94 132.416L341.751 149.577C345.292 151.039 348.132 156.161 346.054 161.122L328.574 203.482C327.327 206.488 323.455 207.739 319.915 206.276Z" fill="black" stroke="black" stroke-width="1.2" stroke-linecap="round" stroke-linejoin="round"/>
<path d="M343.795 157.08L331.234 187.517L268.218 162.244L281.034 131.183C281.351 130.41 281.817 129.706 282.406 129.113C282.996 128.52 283.696 128.05 284.467 127.728C285.239 127.406 286.066 127.24 286.902 127.238C287.738 127.237 288.566 127.4 289.339 127.719L340.339 148.759C341.113 149.078 341.816 149.546 342.409 150.137C343.001 150.728 343.471 151.43 343.792 152.203C344.113 152.976 344.279 153.804 344.279 154.641C344.28 155.478 344.115 156.306 343.795 157.08V157.08Z" fill="#45E0A8" stroke="black" stroke-width="1.2" stroke-linecap="round" stroke-linejoin="round"/>
<path d="M331.233 187.511L326.677 198.56C326.033 200.122 324.796 201.364 323.237 202.013C321.679 202.663 319.926 202.667 318.364 202.024L267.383 180.977C266.609 180.66 265.906 180.193 265.313 179.604C264.72 179.015 264.249 178.314 263.928 177.543C263.606 176.771 263.439 175.944 263.438 175.108C263.437 174.272 263.6 173.444 263.919 172.672L268.226 162.238L331.233 187.511Z" fill="white" stroke="black" stroke-width="1.2" stroke-linecap="round" stroke-linejoin="round"/>
<path d="M304.406 182.897L301.712 188.523C301.601 188.754 301.539 189.006 301.529 189.262C301.52 189.518 301.563 189.773 301.656 190.012C301.75 190.251 301.892 190.468 302.073 190.649C302.254 190.831 302.47 190.973 302.709 191.067L319.576 197.679C320.028 197.855 320.53 197.848 320.977 197.661C321.423 197.473 321.78 197.12 321.97 196.674L324.31 191.171C324.407 190.944 324.458 190.7 324.46 190.453C324.461 190.206 324.414 189.961 324.32 189.732C324.226 189.504 324.088 189.296 323.913 189.122C323.738 188.947 323.53 188.809 323.302 188.716L306.807 181.981C306.366 181.796 305.87 181.788 305.423 181.958C304.976 182.129 304.612 182.465 304.406 182.897V182.897Z" fill="#45E0A8"/>
<path d="M68.1388 152.844L126.724 125.447C132.824 123.037 137.581 119.497 133.725 110.907L108.005 65.845C106.358 62.3236 101.659 61.042 97.5105 62.9855L38.8979 86.2651C34.7492 88.1893 31.6358 94.4893 34.3951 100.281L57.64 149.981C59.2911 153.502 63.9901 154.768 68.1388 152.844Z" fill="black" stroke="#45E0A8" stroke-width="1.2" stroke-linecap="round" stroke-linejoin="round"/>
<path d="M36.8584 95.3317L53.5608 131.034L127.51 97.329L110.472 60.8992C110.049 59.9938 109.451 59.1807 108.713 58.5065C107.974 57.8323 107.111 57.3101 106.171 56.9699C105.231 56.6296 104.233 56.478 103.234 56.5235C102.236 56.5691 101.256 56.811 100.351 57.2354L40.5452 85.2063C38.7137 86.0602 37.2963 87.6066 36.6049 89.5055C35.9135 91.4043 36.0047 93.5 36.8584 95.3317V95.3317Z" fill="white" stroke="black" stroke-width="1.2" stroke-linecap="round" stroke-linejoin="round"/>
<path d="M53.5723 131.037L59.6298 143.995C60.488 145.823 62.0366 147.236 63.9357 147.924C65.8348 148.612 67.9292 148.518 69.759 147.663L129.576 119.684C130.482 119.261 131.295 118.663 131.97 117.925C132.645 117.187 133.167 116.323 133.508 115.383C133.848 114.443 134 113.445 133.955 112.447C133.91 111.448 133.668 110.468 133.244 109.562L127.521 97.3242L53.5723 131.037Z" fill="#45E0A8" stroke="black" stroke-width="1.2" stroke-linecap="round" stroke-linejoin="round"/>
<path d="M125.374 105.56L128.837 111.933C128.979 112.194 129.066 112.482 129.091 112.778C129.116 113.075 129.079 113.373 128.984 113.655C128.888 113.936 128.735 114.195 128.534 114.415C128.333 114.634 128.089 114.81 127.818 114.931L108.64 123.49C108.128 123.72 107.545 123.74 107.018 123.547C106.49 123.353 106.059 122.961 105.816 122.454L102.806 116.205C102.682 115.947 102.611 115.667 102.596 115.381C102.581 115.095 102.624 114.809 102.72 114.54C102.817 114.271 102.966 114.023 103.159 113.812C103.352 113.601 103.586 113.431 103.845 113.31L122.587 104.624C123.084 104.401 123.647 104.373 124.164 104.546C124.68 104.719 125.113 105.081 125.374 105.56V105.56Z" fill="white"/>
<path d="M82.2048 101.364L128.067 89.1487C131.319 88.2828 135.691 84.2149 134.633 78.4999L120.17 35.8201C119.754 34.2591 118.735 32.9272 117.337 32.1174C115.939 31.3077 114.277 31.0863 112.716 31.5021L67.9846 40.0842C64.317 41.5082 61.5384 46.2957 62.5351 51.1641L74.7541 97.042C74.9593 97.8151 75.3148 98.5403 75.8004 99.176C76.2859 99.8117 76.892 100.345 77.5839 100.747C78.2758 101.148 79.0401 101.409 79.833 101.515C80.6258 101.621 81.4318 101.57 82.2048 101.364V101.364Z" fill="black" stroke="black" stroke-width="1.2" stroke-linecap="round" stroke-linejoin="round"/>
<path d="M82.4998 97.6873L132.151 84.4668C134.359 83.8789 135.672 81.6124 135.084 79.4045L121.864 29.7532C121.276 27.5452 119.01 26.2319 116.802 26.8198L67.1503 40.0403C64.9424 40.6282 63.6291 42.8947 64.217 45.1026L77.4374 94.754C78.0253 96.9619 80.2918 98.2752 82.4998 97.6873Z" fill="#45E0A8" stroke="black" stroke-width="1.2" stroke-linecap="round" stroke-linejoin="round"/>
<path d="M116.522 56.554C116.58 57.0081 116.638 57.4161 116.688 57.8279C116.86 59.2133 117.03 60.6014 117.2 61.9919C117.319 62.9695 117.43 63.947 117.557 64.9245C117.581 65.1131 117.48 65.14 117.346 65.1747L115.872 65.5595L110.869 66.841C110.511 66.9334 110.511 66.9334 110.603 67.3029C112.332 74.0608 114.062 80.8188 115.791 87.5767C115.937 88.154 115.91 88.0386 115.456 88.1579L107.732 90.1129C107.347 90.213 107.347 90.213 107.24 89.8204C105.515 83.083 103.79 76.343 102.063 69.6004C101.913 69.0078 101.994 69.0924 101.44 69.2156C99.3515 69.7467 97.2605 70.2829 95.1669 70.8242C94.9167 70.8897 94.8167 70.8512 94.7512 70.5856C94.1098 68.0379 93.4569 65.4915 92.7924 62.9464C92.7192 62.6616 92.7924 62.5885 93.0579 62.523C95.2131 61.9804 97.3682 61.4224 99.5234 60.8797C99.762 60.8182 99.8082 60.7296 99.7466 60.4949C99.304 58.8054 98.8807 57.1159 98.4458 55.4264C98.0268 53.9735 97.8067 52.4704 97.7916 50.9583C97.7541 48.5133 98.658 46.1475 100.316 44.3504C101.346 43.2643 102.593 42.4079 103.976 41.8374C105.435 41.2607 106.949 40.8327 108.494 40.5597C109.522 40.348 110.553 40.1517 111.573 39.9516C111.808 39.9054 112.046 39.8823 112.281 39.8362C112.516 39.79 112.589 39.8785 112.643 40.0902C113.093 41.8913 113.555 43.6847 114.017 45.478C114.14 45.963 114.252 46.4479 114.402 46.9251C114.471 47.1637 114.402 47.2522 114.175 47.3099C112.635 47.6948 111.061 48.0989 109.51 48.5145C108.875 48.679 108.282 48.9797 107.775 49.3958C107.38 49.7209 107.083 50.1481 106.916 50.6307C106.748 51.1133 106.716 51.6327 106.824 52.1321C106.92 52.7979 107.082 53.4521 107.243 54.1064C107.586 55.4918 107.955 56.8734 108.298 58.2627C108.363 58.5398 108.463 58.5822 108.733 58.5129C111.209 57.8715 113.685 57.2365 116.16 56.6079L116.522 56.554Z" fill="white"/>
<path d="M90.6523 138.79L96.5097 136.262L95.1474 132.175L87.2349 135.581C88.0854 134.499 88.7743 133.541 89.3746 132.671L92.9999 130.728L91.6376 126.641C89.009 128.061 86.3459 129.569 83.6019 130.92C83.262 131.059 82.8957 131.121 82.5292 131.101C82.1626 131.082 81.8048 130.982 81.4814 130.809C77.2134 127.876 72.7145 127.068 67.6576 128.469C60.2877 130.508 55.0499 138.86 56.3584 146.045C56.5547 147.126 56.7702 148.204 56.9664 149.224C43.7507 150.163 32.4169 145.81 22.6379 137.02C19.7015 145.067 22.3685 152.599 29.0572 157.683L23.1574 156.694C23.2498 163.571 29.8923 169.659 36.3308 170.821L30.3849 171.591L31.7473 175.678L33.0788 175.536C34.16 176.832 35.4794 177.91 36.9658 178.711C39.8014 180.312 43.0199 181.111 46.2753 181.02C43.0387 183.941 39.9061 186.358 36.0961 187.724C32.3746 189.059 28.6261 190.318 24.5236 190.333L25.886 194.416L35.1917 193.878C39.7207 194.822 44.3748 195.011 48.9654 194.436C54.8551 193.657 60.5562 191.823 65.7949 189.021C70.2083 186.65 74.1542 183.497 77.4405 179.715C82.1626 174.327 85.3299 168.058 87.181 161.081C88.7068 155.573 89.1228 149.817 88.4048 144.147C88.1085 141.927 88.9552 140.684 90.306 139.179C90.4253 139.067 90.5369 138.925 90.6523 138.79Z" fill="black" stroke="black" stroke-width="1.2" stroke-linecap="round" stroke-linejoin="round"/>
<path d="M37.6934 174.915C31.2549 173.76 24.6085 167.661 24.52 160.787L30.4313 161.765C23.7465 156.692 21.0795 149.149 24.0159 141.106C33.7949 149.892 45.1287 154.249 58.3445 153.306C58.1482 152.29 57.9327 151.212 57.7364 150.131C56.4279 142.938 61.6618 134.59 69.0356 132.551C74.0886 131.154 78.5914 131.962 82.8594 134.891C83.1828 135.064 83.5404 135.164 83.9068 135.184C84.2732 135.204 84.6395 135.143 84.9799 135.006C87.72 133.655 90.387 132.147 93.0155 130.727C93.0733 133.147 91.861 135.529 88.6129 139.663L96.51 136.261C94.7705 138.831 93.4312 141.264 91.6532 143.284C90.2985 144.824 89.4557 146.032 89.752 148.256C90.4699 153.926 90.0539 159.682 88.5282 165.19C86.6771 172.167 83.5252 178.436 78.7877 183.824C75.5 187.606 71.5528 190.759 67.1383 193.13C61.9047 195.926 56.2105 197.758 50.328 198.537C44.409 199.349 38.6132 198.622 32.8982 197.163C30.4769 196.486 28.1282 195.572 25.8862 194.435C29.9887 194.435 33.7333 193.161 37.4548 191.825C41.2648 190.459 44.4014 188.042 47.6379 185.121C44.1089 185.244 41.1378 184.321 38.3284 182.812C35.3959 181.273 33.4947 178.771 31.7475 175.692L37.6934 174.915Z" fill="#45E0A8" stroke="black" stroke-width="1.2" stroke-linecap="round" stroke-linejoin="round"/>
<path d="M171.94 120.563C171.94 120.563 174.634 124.684 180.996 124.292C186.58 123.949 189.078 119.008 189.078 119.008C189.078 119.008 186.884 126.239 180.996 126.916C176.143 127.475 171.94 120.563 171.94 120.563Z" fill="black" stroke="black" stroke-width="1.2" stroke-linecap="round" stroke-linejoin="round"/>
<path d="M243.761 60.9509C244.046 59.4838 244.725 58.1218 245.724 57.0101C246.951 55.5566 248.505 54.4134 250.257 53.6734C251.674 53.033 253.177 52.6014 254.718 52.3919C257.773 52.0301 260.221 53.1269 262.134 55.4976C262.95 56.4829 263.63 57.5727 264.158 58.738C265.243 61.2242 266.303 63.7218 267.337 66.2311C268.557 69.179 269.738 72.1423 270.939 75.0826C271.124 75.5444 271.124 75.5444 270.65 75.7368L263.839 78.5001C263.315 78.7117 263.315 78.7117 263.107 78.1999C261.414 74.0281 259.722 69.8551 258.031 65.6807C257.595 64.527 256.942 63.4676 256.107 62.5596C255.002 61.405 253.698 60.6738 252.058 61.0202C249.153 61.609 246.878 63.8219 247.34 67.3625C247.458 68.3125 247.692 69.2444 248.037 70.1373C249.657 74.2436 251.335 78.3269 252.994 82.4178C253.167 82.8489 253.167 82.8489 252.728 83.0297L245.824 85.8276C245.397 86.0008 245.393 86.0008 245.227 85.5928C241.856 77.275 238.481 68.9596 235.102 60.6469C234.983 60.3467 234.998 60.2197 235.325 60.0889C237.532 59.2114 239.732 58.3134 241.925 57.3949C242.199 57.2833 242.31 57.3179 242.437 57.6066C242.841 58.7034 243.284 59.7733 243.761 60.9509Z" fill="white"/>
<path d="M235.106 75.1803C236.786 79.3341 238.47 83.4866 240.159 87.6379C240.324 88.0497 240.324 88.0535 239.905 88.2229C237.595 89.1657 235.259 90.1009 232.943 91.0554C232.639 91.1785 232.512 91.14 232.385 90.8244C229.018 82.4937 225.642 74.1682 222.255 65.8477C222.132 65.5475 222.159 65.4205 222.482 65.2897C224.83 64.3558 227.171 63.4065 229.506 62.4418C229.798 62.3225 229.914 62.361 230.033 62.6612C231.719 66.8355 233.41 71.0085 235.106 75.1803Z" fill="white"/>
<path d="M227.235 52.9785C227.756 54.2676 227.743 55.7107 227.2 56.9903C226.656 58.27 225.627 59.2813 224.338 59.8018C223.048 60.3224 221.605 60.3095 220.326 59.766C219.046 59.2226 218.035 58.193 217.514 56.9039C217.256 56.2656 217.127 55.5828 217.133 54.8944C217.139 54.2061 217.281 53.5257 217.55 52.8921C217.819 52.2584 218.21 51.684 218.701 51.2016C219.192 50.7192 219.774 50.3383 220.412 50.0805C221.05 49.8228 221.733 49.6933 222.422 49.6994C223.11 49.7056 223.79 49.8472 224.424 50.1163C225.058 50.3854 225.632 50.7767 226.114 51.2678C226.597 51.7589 226.978 52.3401 227.235 52.9785V52.9785Z" fill="white"/>
<path d="M140.225 96.1885C138.892 95.9796 137.615 95.5017 136.473 94.7838C135.33 94.066 134.345 93.1232 133.579 92.0128C132.776 90.9234 132.211 89.6784 131.918 88.3575C131.625 87.0367 131.611 85.6692 131.878 84.3428C132.075 83.0255 132.547 81.7644 133.263 80.6413C133.979 79.5181 134.923 78.5581 136.034 77.8234C138.24 76.2787 140.967 75.6695 143.621 76.1288C146.274 76.5881 148.638 78.0786 150.197 80.2749C151.016 81.3366 151.605 82.5574 151.927 83.8594C152.248 85.1615 152.294 86.5162 152.063 87.8372C151.746 89.6383 150.934 91.3158 149.719 92.6825C148.543 94.0197 147.058 95.05 145.394 95.6843C143.75 96.3229 141.962 96.4973 140.225 96.1885V96.1885ZM163.293 22.967L152.633 73.3823L136.2 70.5382L143.127 19.4648L163.293 22.967Z" fill="black" stroke="#45E0A8" stroke-width="1.2" stroke-linecap="round" stroke-linejoin="round"/>
<path d="M137.973 92.5244C136.64 92.314 135.364 91.835 134.221 91.1166C133.079 90.3982 132.094 89.4552 131.327 88.3449C130.525 87.2566 129.96 86.0128 129.667 84.6934C129.374 83.3739 129.36 82.0078 129.626 80.6826C129.823 79.3654 130.296 78.1045 131.012 76.9814C131.728 75.8584 132.671 74.8982 133.782 74.1632C135.988 72.6185 138.715 72.0092 141.369 72.4686C144.022 72.9279 146.386 74.4184 147.945 76.6147C148.764 77.6764 149.353 78.8972 149.675 80.1992C149.996 81.5013 150.042 82.856 149.811 84.177C149.494 85.9792 148.682 87.6579 147.467 89.0261C146.293 90.3668 144.81 91.4011 143.146 92.0395C141.498 92.6723 139.709 92.8401 137.973 92.5244ZM161.064 19.3029L150.388 69.7182L133.951 66.8703L140.879 15.8008L161.064 19.3029Z" fill="#45E0A8" stroke="black" stroke-width="1.2" stroke-linecap="round" stroke-linejoin="round"/>
<path d="M133.56 67.4062L136.989 69.9617L137.493 67.7103L133.56 67.4062Z" fill="black"/>
<path d="M161.638 19.0469L162.527 23.4457L160.025 24.1153L161.638 19.0469Z" fill="black"/>
</svg>
